<?xml version="1.0" encoding="utf-8"?>
<!-- Generator: Adobe Illustrator 24.2.1, SVG Export Plug-In . SVG Version: 6.00 Build 0)  -->
<svg version="1.1" id="Layer_1" xmlns="http://www.w3.org/2000/svg" xmlns:xlink="http://www.w3.org/1999/xlink" x="0px" y="0px"
	 viewBox="0 0 197.7 69.4" style="enable-background:new 0 0 197.7 69.4;" xml:space="preserve">
<style type="text/css">
	.st0{fill:#FFFFFF;}
	.st1{font-family:'HARMONY';}
	.st2{font-size:17px;}
</style>
<g>
	<text transform="matrix(1 0 0 1 156.8247 39.3686)" class="st0 st1 st2">pert</text>
	<g>
		<polygon class="st0" points="128.7,14.6 142.8,33.5 128.8,54.9 135.6,54.9 146,37.8 146,28.3 136,14.6 		"/>
	</g>
	<g>
		<polygon class="st0" points="164,14.6 149.9,33.5 163.9,54.9 157.1,54.9 146.7,37.8 146.7,28.3 156.7,14.6 		"/>
	</g>
</g>
<g>
	<g>
		<path class="st0" d="M15.6,30h3.4l-0.3,0.8h-3.4l-3.5,9.5C11.6,41,10.3,44,10.3,46c0,0.9,0.3,1.6,1.2,1.6c2.3,0,4.4-2.6,5.8-5.2
			h1.1c-2,4.2-4.9,6.7-8.4,6.7c-1.7,0-2.9-1.1-2.9-3.7c0-1.4,0.4-3.2,1.2-5.5l3.3-9.1H9.3L9.5,30h2.4l2.7-7.6
			c0.2-0.6,0.7-0.9,1.3-0.9h2.8L15.6,30z"/>
		<path class="st0" d="M30.6,40c-1.1,3-1.6,5-1.6,6.3c0,1,0.3,1.5,0.9,1.5c1.2,0,3.5-2.3,5.2-5.4h1c-1.5,3.2-4,6.7-6.8,6.7h-0.1
			c-2.1-0.1-3-2.5-3-5.2v-0.2C25,46.2,23.1,49,21.1,49c-2.7,0-3.8-2.4-3.8-5.1c0-1.4,0.3-2.9,0.8-4.2c1.4-3.7,4.5-7.2,7.9-7.2H26
			c1.2,0,2.3,0.5,3.2,1.2c0.3-0.7,1-1.2,1.7-1.2h2.4L30.6,40z M28.9,34.4c-0.6-0.5-1.1-0.7-1.7-0.7c-3.6,0-6.9,8.1-6.9,11.8
			c0,1.1,0.3,1.8,0.9,1.8h0.1c2.4-0.1,4.7-4.9,5.4-7L28.9,34.4z"/>
		<path class="st0" d="M45.8,42.4c-2,4.2-4.9,6.7-8.4,6.7c-1.7,0-2.9-1-2.9-3.6c0-1.4,0.4-3.2,1.2-5.6L42,22.7
			c0.3-0.8,1-1.3,1.8-1.3h2.3l-6.8,18.8c-1.1,3-1.5,4.9-1.5,6c0,1,0.4,1.4,0.9,1.4c0.2,0.1,0.3,0.1,0.5,0.1c2.1,0,4.2-2.4,5.8-5.3
			H45.8z"/>
		<path class="st0" d="M60.8,42.4c-2.6,4.4-6.9,6.7-10.4,6.7c-3.1,0-5.5-1.8-5.5-5.6c0-0.4,0.1-0.9,0.1-1.3c0.6-4.6,4.6-9.7,9.9-9.7
			h0.1c1.7,0.1,2.4,1,2.4,2.2c0,2.7-3.6,7.2-8.7,7.5c-0.1,0.6-0.2,1.2-0.2,1.7c0,2.6,1.3,3.8,3.1,3.8c2.5,0,5.9-2.1,8.1-5.3H60.8z
			 M48.8,41.4c4-0.4,7.4-4.1,7.4-6.2c0-0.8-0.5-1.3-1.6-1.3C51.7,33.9,49.4,39.1,48.8,41.4z"/>
		<path class="st0" d="M78.5,42.4h0.9c-1.6,3.3-4.2,6.8-7.1,6.8c-2,0-2.9-1.1-2.9-3.1c0-1.2,0.4-2.8,0.9-4.7c0.6-2,1.3-4.5,1.3-5.9
			c0-0.7-0.2-1.1-0.6-1.1H71c-2.4,0.2-7.6,9.3-9.6,13.6c-0.3,0.7-1.1,1.2-1.9,1.2h-2.3l5.5-15.3c0.3-0.9,1.1-1.4,2-1.4H67l-2.8,7.7
			c2.5-3.8,5.9-7.6,8.8-7.6H73c1.7,0.1,2.3,1.3,2.3,3c0,2.4-1.3,5.7-1.7,7c-0.6,1.9-1.1,3.6-1.1,4.5c0,0.5,0.2,0.8,0.5,0.8
			C75.1,47.7,77.1,45,78.5,42.4z"/>
		<path class="st0" d="M86.5,30h3.4l-0.3,0.8h-3.4l-3.5,9.5C82.5,41,81.2,44,81.2,46c0,0.9,0.3,1.6,1.2,1.6c2.3,0,4.4-2.6,5.8-5.2
			h1.1c-2,4.2-4.9,6.7-8.4,6.7c-1.7,0-2.9-1.1-2.9-3.7c0-1.4,0.4-3.2,1.2-5.5l3.3-9.1h-2.3l0.2-0.8h2.4l2.7-7.6
			c0.2-0.6,0.7-0.9,1.3-0.9h2.8L86.5,30z"/>
		<path class="st0" d="M104.1,42.4c-2.6,4.4-6.9,6.7-10.4,6.7c-3.1,0-5.5-1.8-5.5-5.6c0-0.4,0.1-0.9,0.1-1.3
			c0.6-4.6,4.6-9.7,9.9-9.7h0.1c1.7,0.1,2.4,1,2.4,2.2c0,2.7-3.6,7.2-8.7,7.5c-0.1,0.6-0.2,1.2-0.2,1.7c0,2.6,1.3,3.8,3.1,3.8
			c2.5,0,5.9-2.1,8.1-5.3H104.1z M92.2,41.4c4-0.4,7.4-4.1,7.4-6.2c0-0.8-0.5-1.3-1.6-1.3C95.1,33.9,92.8,39.1,92.2,41.4z"/>
		<path class="st0" d="M118.4,37.4c-1.6,4.3-2.2,7-2.2,8.7c0,1.4,0.5,1.9,1.2,1.9c1.5,0,4-2.3,5.7-5.6h0.9c-1.5,3.2-4.2,6.7-6.9,6.7
			h-0.2c-2.7-0.2-3.5-2.4-3.5-5v-0.3c-1.3,2.6-3.3,5.1-5.8,5.1h-0.1c-3.1-0.1-4.5-3-4.5-6.3c0-4.7,2.8-10.3,7.9-10.3h0.2
			c2.4,0.1,3.6,1.4,4.2,3.2l4.8-13.2c0.2-0.6,0.8-1,1.5-1h2.6L118.4,37.4z M114.9,37c-0.4-1.6-1.2-3.4-2.9-3.4h-0.2
			c-2.8,0.1-5.4,7-5.4,11.2c0,1.8,0.5,3,1.6,3C111.7,47.7,113.9,39.9,114.9,37L114.9,37z"/>
	</g>
	<g>
		<path d="M125.1,48.4v4c0,8.3,6.7,15,15,15h35.4c8.3,0,15-6.7,15-15V17c0-8.3-6.7-15-15-15h-35.4c-8.3,0-15,6.7-15,15v2.9"/>
		<g>
			<g>
				<path class="st0" d="M164.2,31.7c0,2.2-1.8,4.1-4.2,4.1c-1.4,0-2.2-0.8-2.6-1.6v5.2h1.2v0.3h-4.1v-0.3h1.2V28.1h-1.2v-0.3h2.9
					v1.5c0.4-0.8,1.2-1.6,2.6-1.6C162.4,27.6,164.2,29.5,164.2,31.7z M162.5,31.7c0-1.3-0.4-3.8-2.4-3.8c-1.8,0-2.6,1.5-2.6,2.5V33
					c0,1,0.8,2.5,2.6,2.5C162.1,35.5,162.5,33,162.5,31.7z"/>
				<path class="st0" d="M172.5,33.7h0.3c-0.2,0.5-1.3,2.1-3.5,2.1c-2.4,0-4.2-1.9-4.2-4.1s1.8-4.1,4.2-4.1c2.2,0,3.8,1.7,3.8,3.8
					h-6.2c0,0.1,0,0.2,0,0.3c0,1.3,0.4,3.8,2.4,3.8C171.4,35.5,172.3,34.1,172.5,33.7z M166.9,31.1h4.4c-0.1-1.4-0.5-3.2-2-3.2
					C167.5,27.9,167,29.7,166.9,31.1z"/>
				<path class="st0" d="M181.1,29.8h-0.3c-0.5-1.3-0.9-1.9-2-1.9c-1.5,0-2,2.3-2,3.6v3.8h1.2v0.3h-4.1v-0.3h1.2v-7.3h-1.2v-0.3h2.8
					v2.5c0.2-1.4,0.9-2.7,2.3-2.7c0.3,0,0.5,0.1,0.9,0.2h0.7L181.1,29.8z"/>
				<path class="st0" d="M187.2,33.3c-0.1,0.6-0.4,2.5-2.1,2.5c-1.3,0-2.5-0.7-2.5-3v-4.8h-1.2v-0.3h1.2v-2.1h1.7v2.1h2.5v0.3h-2.5
					v4.3c0,1.3-0.2,3.1,1,3.1c1.1,0,1.5-1.6,1.6-2.2H187.2z"/>
			</g>
			<g>
				<g>
					<polygon class="st0" points="128.6,14.6 141.3,33.4 128.6,54.9 134.8,54.9 144.2,37.8 144.2,28.3 135.1,14.6 					"/>
				</g>
				<g>
					<polygon class="st0" points="159.8,14.5 147.1,33.4 159.8,54.8 153.6,54.8 144.2,37.7 144.2,28.2 153.3,14.5 					"/>
				</g>
			</g>
		</g>
	</g>
</g>
</svg>
