<svg width="198" height="70" viewBox="0 0 198 70" fill="none" xmlns="http://www.w3.org/2000/svg">
<path d="M158.128 42.8464V30.0964H159.505V31.5694H159.674C159.778 31.4084 159.923 31.2032 160.108 30.9537C160.297 30.7001 160.567 30.4747 160.917 30.2775C161.271 30.0763 161.75 29.9757 162.354 29.9757C163.135 29.9757 163.823 30.1709 164.419 30.5613C165.014 30.9516 165.479 31.505 165.813 32.2214C166.147 32.9378 166.314 33.783 166.314 34.7569C166.314 35.7389 166.147 36.5901 165.813 37.3105C165.479 38.0269 165.016 38.5823 164.425 38.9767C163.833 39.3671 163.151 39.5623 162.378 39.5623C161.783 39.5623 161.306 39.4637 160.947 39.2665C160.589 39.0653 160.314 38.8379 160.12 38.5843C159.927 38.3268 159.778 38.1135 159.674 37.9444H159.553V42.8464H158.128ZM159.529 34.7328C159.529 35.4331 159.631 36.0508 159.837 36.5861C160.042 37.1174 160.342 37.5339 160.736 37.8358C161.131 38.1336 161.614 38.2825 162.185 38.2825C162.781 38.2825 163.278 38.1255 163.676 37.8116C164.079 37.4937 164.38 37.0671 164.582 36.5318C164.787 35.9925 164.89 35.3928 164.89 34.7328C164.89 34.0808 164.789 33.4932 164.588 32.97C164.391 32.4428 164.091 32.0262 163.688 31.7203C163.29 31.4105 162.789 31.2555 162.185 31.2555C161.605 31.2555 161.118 31.4024 160.724 31.6962C160.33 31.986 160.032 32.3925 159.831 32.9157C159.629 33.4348 159.529 34.0405 159.529 34.7328ZM172.375 39.5623C171.482 39.5623 170.711 39.3651 170.063 38.9707C169.419 38.5723 168.922 38.0169 168.572 37.3045C168.226 36.5881 168.053 35.755 168.053 34.8052C168.053 33.8554 168.226 33.0183 168.572 32.2939C168.922 31.5654 169.409 30.9979 170.033 30.5914C170.661 30.1809 171.393 29.9757 172.23 29.9757C172.713 29.9757 173.19 30.0562 173.661 30.2172C174.132 30.3781 174.561 30.6397 174.947 31.002C175.333 31.3601 175.641 31.835 175.871 32.4267C176.1 33.0183 176.215 33.7467 176.215 34.612V35.2157H169.067V33.9842H174.766C174.766 33.461 174.661 32.9941 174.452 32.5836C174.247 32.1731 173.953 31.8491 173.571 31.6117C173.192 31.3742 172.746 31.2555 172.23 31.2555C171.663 31.2555 171.172 31.3964 170.757 31.6781C170.347 31.9558 170.031 32.318 169.81 32.7647C169.588 33.2115 169.478 33.6904 169.478 34.2015V35.0225C169.478 35.7228 169.598 36.3165 169.84 36.8034C170.085 37.2864 170.425 37.6547 170.86 37.9082C171.295 38.1577 171.8 38.2825 172.375 38.2825C172.75 38.2825 173.088 38.2302 173.39 38.1255C173.695 38.0169 173.959 37.8559 174.18 37.6426C174.402 37.4252 174.573 37.1556 174.694 36.8336L176.07 37.22C175.925 37.6868 175.682 38.0974 175.339 38.4515C174.997 38.8017 174.575 39.0753 174.072 39.2725C173.569 39.4657 173.003 39.5623 172.375 39.5623ZM178.382 39.3691V30.0964H179.759V31.497H179.855C180.024 31.0382 180.33 30.6659 180.773 30.3801C181.215 30.0944 181.714 29.9515 182.27 29.9515C182.375 29.9515 182.505 29.9535 182.662 29.9576C182.819 29.9616 182.938 29.9676 183.018 29.9757V31.4245C182.97 31.4125 182.859 31.3944 182.686 31.3702C182.517 31.342 182.338 31.3279 182.149 31.3279C181.698 31.3279 181.296 31.4225 180.942 31.6117C180.592 31.7968 180.314 32.0544 180.109 32.3844C179.907 32.7104 179.807 33.0827 179.807 33.5012V39.3691H178.382ZM189.321 30.0964V31.3038H184.516V30.0964H189.321ZM185.916 27.8748H187.341V36.7129C187.341 37.1154 187.399 37.4172 187.516 37.6184C187.637 37.8156 187.79 37.9484 187.975 38.0169C188.164 38.0813 188.363 38.1135 188.572 38.1135C188.729 38.1135 188.858 38.1054 188.959 38.0893C189.059 38.0692 189.14 38.0531 189.2 38.041L189.49 39.3208C189.393 39.3571 189.259 39.3933 189.086 39.4295C188.913 39.4698 188.693 39.4899 188.428 39.4899C188.025 39.4899 187.631 39.4033 187.244 39.2303C186.862 39.0572 186.544 38.7936 186.29 38.4395C186.041 38.0853 185.916 37.6386 185.916 37.0993V27.8748Z" fill="white"/>
<path d="M128.699 14.5996L142.799 33.4996L128.799 54.8996H135.599L145.999 37.7996V28.2996L135.999 14.5996H128.699Z" fill="white"/>
<path d="M163.999 14.5996L149.899 33.4996L163.899 54.8996H157.099L146.699 37.7996V28.2996L156.699 14.5996H163.999Z" fill="white"/>
<path d="M15.5996 30H18.9996L18.6996 30.8H15.2996L11.7996 40.3C11.5996 41 10.2996 44 10.2996 46C10.2996 46.9 10.5996 47.6 11.4996 47.6C13.7996 47.6 15.8996 45 17.2996 42.4H18.3996C16.3996 46.6 13.4996 49.1 9.99961 49.1C8.29961 49.1 7.09961 48 7.09961 45.4C7.09961 44 7.49961 42.2 8.29961 39.9L11.5996 30.8H9.29961L9.49961 30H11.8996L14.5996 22.4C14.7996 21.8 15.2996 21.5 15.8996 21.5H18.6996L15.5996 30Z" fill="black"/>
<path d="M30.5988 40C29.4988 43 28.9988 45 28.9988 46.3C28.9988 47.3 29.2988 47.8 29.8988 47.8C31.0988 47.8 33.3988 45.5 35.0988 42.4H36.0988C34.5988 45.6 32.0988 49.1 29.2988 49.1H29.1988C27.0988 49 26.1988 46.6 26.1988 43.9V43.7C24.9988 46.2 23.0988 49 21.0988 49C18.3988 49 17.2988 46.6 17.2988 43.9C17.2988 42.5 17.5988 41 18.0988 39.7C19.4988 36 22.5988 32.5 25.9988 32.5C27.1988 32.5 28.2988 33 29.1988 33.7C29.4988 33 30.1988 32.5 30.8988 32.5H33.2988L30.5988 40ZM28.8988 34.4C28.2988 33.9 27.7988 33.7 27.1988 33.7C23.5988 33.7 20.2988 41.8 20.2988 45.5C20.2988 46.6 20.5988 47.3 21.1988 47.3H21.2988C23.6988 47.2 25.9988 42.4 26.6988 40.3L28.8988 34.4Z" fill="black"/>
<path d="M45.8 42.4004C43.8 46.6004 40.9 49.1004 37.4 49.1004C35.7 49.1004 34.5 48.1004 34.5 45.5004C34.5 44.1004 34.9 42.3004 35.7 39.9004L42 22.7004C42.3 21.9004 43 21.4004 43.8 21.4004H46.1L39.3 40.2004C38.2 43.2004 37.8 45.1004 37.8 46.2004C37.8 47.2004 38.2 47.6004 38.7 47.6004C38.9 47.7004 39 47.7004 39.2 47.7004C41.3 47.7004 43.4 45.3004 45 42.4004H45.8Z" fill="black"/>
<path d="M60.8004 42.4C58.2004 46.8 53.9004 49.1 50.4004 49.1C47.3004 49.1 44.9004 47.3 44.9004 43.5C44.9004 43.1 45.0004 42.6 45.0004 42.2C45.6004 37.6 49.6004 32.5 54.9004 32.5H55.0004C56.7004 32.6 57.4004 33.5 57.4004 34.7C57.4004 37.4 53.8004 41.9 48.7004 42.2C48.6004 42.8 48.5004 43.4 48.5004 43.9C48.5004 46.5 49.8004 47.7 51.6004 47.7C54.1004 47.7 57.5004 45.6 59.7004 42.4H60.8004ZM48.8004 41.4C52.8004 41 56.2004 37.3 56.2004 35.2C56.2004 34.4 55.7004 33.9 54.6004 33.9C51.7004 33.9 49.4004 39.1 48.8004 41.4Z" fill="black"/>
<path d="M78.4992 42.4H79.3992C77.7992 45.7 75.1992 49.2 72.2992 49.2C70.2992 49.2 69.3992 48.1 69.3992 46.1C69.3992 44.9 69.7992 43.3 70.2992 41.4C70.8992 39.4 71.5992 36.9 71.5992 35.5C71.5992 34.8 71.3992 34.4 70.9992 34.4C68.5992 34.6 63.3992 43.7 61.3992 48C61.0992 48.7 60.2992 49.2 59.4992 49.2H57.1992L62.6992 33.9C62.9992 33 63.7992 32.5 64.6992 32.5H66.9992L64.1992 40.2C66.6992 36.4 70.0992 32.6 72.9992 32.6C74.6992 32.7 75.2992 33.9 75.2992 35.6C75.2992 38 73.9992 41.3 73.5992 42.6C72.9992 44.5 72.4992 46.2 72.4992 47.1C72.4992 47.6 72.6992 47.9 72.9992 47.9C75.0992 47.7 77.0992 45 78.4992 42.4Z" fill="black"/>
<path d="M86.5 30H89.9L89.6 30.8H86.2L82.7 40.3C82.5 41 81.2 44 81.2 46C81.2 46.9 81.5 47.6 82.4 47.6C84.7 47.6 86.8 45 88.2 42.4H89.3C87.3 46.6 84.4 49.1 80.9 49.1C79.2 49.1 78 48 78 45.4C78 44 78.4 42.2 79.2 39.9L82.5 30.8H80.2L80.4 30H82.8L85.5 22.4C85.7 21.8 86.2 21.5 86.8 21.5H89.6L86.5 30Z" fill="black"/>
<path d="M104.099 42.4C101.499 46.8 97.1992 49.1 93.6992 49.1C90.5992 49.1 88.1992 47.3 88.1992 43.5C88.1992 43.1 88.2992 42.6 88.2992 42.2C88.8992 37.6 92.8992 32.5 98.1992 32.5H98.2992C99.9992 32.6 100.699 33.5 100.699 34.7C100.699 37.4 97.0992 41.9 91.9992 42.2C91.8992 42.8 91.7992 43.4 91.7992 43.9C91.7992 46.5 93.0992 47.7 94.8992 47.7C97.3992 47.7 100.799 45.6 102.999 42.4H104.099ZM92.1992 41.4C96.1992 41 99.5992 37.3 99.5992 35.2C99.5992 34.4 99.0992 33.9 97.9992 33.9C95.0992 33.9 92.7992 39.1 92.1992 41.4Z" fill="black"/>
<path d="M118.4 37.4008C116.8 41.7008 116.2 44.4008 116.2 46.1008C116.2 47.5008 116.7 48.0008 117.4 48.0008C118.9 48.0008 121.4 45.7008 123.1 42.4008H124C122.5 45.6008 119.8 49.1008 117.1 49.1008H116.9C114.2 48.9008 113.4 46.7008 113.4 44.1008V43.8008C112.1 46.4008 110.1 48.9008 107.6 48.9008H107.5C104.4 48.8008 103 45.9008 103 42.6008C103 37.9008 105.8 32.3008 110.9 32.3008H111.1C113.5 32.4008 114.7 33.7008 115.3 35.5008L120.1 22.3008C120.3 21.7008 120.9 21.3008 121.6 21.3008H124.2L118.4 37.4008ZM114.9 37.0008C114.5 35.4008 113.7 33.6008 112 33.6008H111.8C109 33.7008 106.4 40.6008 106.4 44.8008C106.4 46.6008 106.9 47.8008 108 47.8008C111.7 47.7008 113.9 39.9008 114.9 37.0008Z" fill="black"/>
<path d="M125.1 48.4V52.4C125.1 60.7 131.8 67.4 140.1 67.4H175.5C183.8 67.4 190.5 60.7 190.5 52.4V17C190.5 8.7 183.8 2 175.5 2H140.1C131.8 2 125.1 8.7 125.1 17V19.9" fill="white"/>
<path d="M164.2 31.6991C164.2 33.8991 162.4 35.7991 160 35.7991C158.6 35.7991 157.8 34.9991 157.4 34.1991V39.3991H158.6V39.6991H154.5V39.3991H155.7V28.0991H154.5V27.7991H157.4V29.2991C157.8 28.4991 158.6 27.6991 160 27.6991C162.4 27.5991 164.2 29.4991 164.2 31.6991ZM162.5 31.6991C162.5 30.3991 162.1 27.8991 160.1 27.8991C158.3 27.8991 157.5 29.3991 157.5 30.3991V32.9991C157.5 33.9991 158.3 35.4991 160.1 35.4991C162.1 35.4991 162.5 32.9991 162.5 31.6991Z" fill="black"/>
<path d="M172.5 33.6996H172.8C172.6 34.1996 171.5 35.7996 169.3 35.7996C166.9 35.7996 165.1 33.8996 165.1 31.6996C165.1 29.4996 166.9 27.5996 169.3 27.5996C171.5 27.5996 173.1 29.2996 173.1 31.3996H166.9C166.9 31.4996 166.9 31.5996 166.9 31.6996C166.9 32.9996 167.3 35.4996 169.3 35.4996C171.4 35.4996 172.3 34.0996 172.5 33.6996ZM166.9 31.0996H171.3C171.2 29.6996 170.8 27.8996 169.3 27.8996C167.5 27.8996 167 29.6996 166.9 31.0996Z" fill="black"/>
<path d="M181.1 29.8H180.8C180.3 28.5 179.9 27.9 178.8 27.9C177.3 27.9 176.8 30.2 176.8 31.5V35.3H178V35.6H173.9V35.3H175.1V28H173.9V27.7H176.7V30.2C176.9 28.8 177.6 27.5 179 27.5C179.3 27.5 179.5 27.6 179.9 27.7H180.6L181.1 29.8Z" fill="black"/>
<path d="M187.2 33.2996C187.1 33.8996 186.8 35.7996 185.1 35.7996C183.8 35.7996 182.6 35.0996 182.6 32.7996V27.9996H181.4V27.6996H182.6V25.5996H184.3V27.6996H186.8V27.9996H184.3V32.2996C184.3 33.5996 184.1 35.3996 185.3 35.3996C186.4 35.3996 186.8 33.7996 186.9 33.1996H187.2V33.2996Z" fill="black"/>
<path d="M128.6 14.5996L141.3 33.3996L128.6 54.8996H134.8L144.2 37.7996V28.2996L135.1 14.5996H128.6Z" fill="black"/>
<path d="M159.799 14.5L147.099 33.4L159.799 54.8H153.599L144.199 37.7V28.2L153.299 14.5H159.799Z" fill="black"/>
</svg>
