<svg width="198" height="70" viewBox="0 0 198 70" fill="none" xmlns="http://www.w3.org/2000/svg">
<path d="M158.129 42.8466V30.0966H159.506V31.5696H159.675C159.779 31.4086 159.924 31.2034 160.109 30.9539C160.298 30.7003 160.568 30.4749 160.918 30.2777C161.272 30.0765 161.751 29.9759 162.355 29.9759C163.136 29.9759 163.824 30.1711 164.42 30.5615C165.015 30.9518 165.48 31.5052 165.814 32.2216C166.148 32.938 166.315 33.7832 166.315 34.7571C166.315 35.7391 166.148 36.5903 165.814 37.3107C165.48 38.0271 165.017 38.5825 164.426 38.9769C163.834 39.3673 163.152 39.5625 162.379 39.5625C161.784 39.5625 161.307 39.4639 160.948 39.2667C160.59 39.0655 160.315 38.8381 160.121 38.5845C159.928 38.327 159.779 38.1137 159.675 37.9446H159.554V42.8466H158.129ZM159.53 34.733C159.53 35.4333 159.632 36.051 159.838 36.5863C160.043 37.1176 160.343 37.5341 160.737 37.836C161.132 38.1338 161.615 38.2827 162.186 38.2827C162.782 38.2827 163.279 38.1257 163.677 37.8118C164.08 37.4939 164.381 37.0673 164.583 36.532C164.788 35.9927 164.891 35.393 164.891 34.733C164.891 34.081 164.79 33.4934 164.589 32.9702C164.392 32.443 164.092 32.0264 163.689 31.7205C163.291 31.4107 162.79 31.2557 162.186 31.2557C161.606 31.2557 161.119 31.4026 160.725 31.6964C160.331 31.9862 160.033 32.3927 159.832 32.9159C159.63 33.435 159.53 34.0407 159.53 34.733ZM172.376 39.5625C171.483 39.5625 170.712 39.3653 170.064 38.9709C169.42 38.5725 168.923 38.0171 168.573 37.3047C168.227 36.5883 168.054 35.7552 168.054 34.8054C168.054 33.8556 168.227 33.0185 168.573 32.2941C168.923 31.5656 169.41 30.9981 170.034 30.5916C170.662 30.1811 171.394 29.9759 172.231 29.9759C172.714 29.9759 173.191 30.0564 173.662 30.2174C174.133 30.3783 174.562 30.6399 174.948 31.0022C175.334 31.3603 175.642 31.8352 175.872 32.4269C176.101 33.0185 176.216 33.7469 176.216 34.6122V35.2159H169.068V33.9844H174.767C174.767 33.4612 174.662 32.9943 174.453 32.5838C174.248 32.1733 173.954 31.8493 173.572 31.6119C173.193 31.3744 172.747 31.2557 172.231 31.2557C171.664 31.2557 171.173 31.3966 170.758 31.6783C170.348 31.956 170.032 32.3182 169.811 32.7649C169.589 33.2117 169.479 33.6906 169.479 34.2017V35.0227C169.479 35.723 169.599 36.3167 169.841 36.8036C170.086 37.2866 170.426 37.6549 170.861 37.9084C171.296 38.1579 171.801 38.2827 172.376 38.2827C172.751 38.2827 173.089 38.2304 173.391 38.1257C173.696 38.0171 173.96 37.8561 174.181 37.6428C174.403 37.4254 174.574 37.1558 174.695 36.8338L176.071 37.2202C175.926 37.687 175.683 38.0976 175.34 38.4517C174.998 38.8019 174.576 39.0755 174.073 39.2727C173.57 39.4659 173.004 39.5625 172.376 39.5625ZM178.383 39.3693V30.0966H179.76V31.4972H179.856C180.025 31.0384 180.331 30.6661 180.774 30.3803C181.216 30.0946 181.715 29.9517 182.271 29.9517C182.376 29.9517 182.506 29.9537 182.663 29.9578C182.82 29.9618 182.939 29.9678 183.019 29.9759V31.4247C182.971 31.4127 182.86 31.3946 182.687 31.3704C182.518 31.3422 182.339 31.3281 182.15 31.3281C181.699 31.3281 181.297 31.4227 180.943 31.6119C180.593 31.797 180.315 32.0546 180.11 32.3846C179.908 32.7106 179.808 33.0829 179.808 33.5014V39.3693H178.383ZM189.322 30.0966V31.304H184.517V30.0966H189.322ZM185.917 27.875H187.342V36.7131C187.342 37.1156 187.4 37.4174 187.517 37.6186C187.638 37.8158 187.791 37.9486 187.976 38.0171C188.165 38.0815 188.364 38.1137 188.573 38.1137C188.73 38.1137 188.859 38.1056 188.96 38.0895C189.06 38.0694 189.141 38.0533 189.201 38.0412L189.491 39.321C189.394 39.3573 189.26 39.3935 189.087 39.4297C188.914 39.47 188.694 39.4901 188.429 39.4901C188.026 39.4901 187.632 39.4035 187.245 39.2305C186.863 39.0574 186.545 38.7938 186.291 38.4397C186.042 38.0855 185.917 37.6388 185.917 37.0995V27.875Z" fill="white"/>
<path d="M128.699 14.5996L142.799 33.4996L128.799 54.8996H135.599L145.999 37.7996V28.2996L135.999 14.5996H128.699Z" fill="white"/>
<path d="M163.999 14.5996L149.899 33.4996L163.899 54.8996H157.099L146.699 37.7996V28.2996L156.699 14.5996H163.999Z" fill="white"/>
<path d="M15.5996 30H18.9996L18.6996 30.8H15.2996L11.7996 40.3C11.5996 41 10.2996 44 10.2996 46C10.2996 46.9 10.5996 47.6 11.4996 47.6C13.7996 47.6 15.8996 45 17.2996 42.4H18.3996C16.3996 46.6 13.4996 49.1 9.99961 49.1C8.29961 49.1 7.09961 48 7.09961 45.4C7.09961 44 7.49961 42.2 8.29961 39.9L11.5996 30.8H9.29961L9.49961 30H11.8996L14.5996 22.4C14.7996 21.8 15.2996 21.5 15.8996 21.5H18.6996L15.5996 30Z" fill="white"/>
<path d="M30.5988 40C29.4988 43 28.9988 45 28.9988 46.3C28.9988 47.3 29.2988 47.8 29.8988 47.8C31.0988 47.8 33.3988 45.5 35.0988 42.4H36.0988C34.5988 45.6 32.0988 49.1 29.2988 49.1H29.1988C27.0988 49 26.1988 46.6 26.1988 43.9V43.7C24.9988 46.2 23.0988 49 21.0988 49C18.3988 49 17.2988 46.6 17.2988 43.9C17.2988 42.5 17.5988 41 18.0988 39.7C19.4988 36 22.5988 32.5 25.9988 32.5C27.1988 32.5 28.2988 33 29.1988 33.7C29.4988 33 30.1988 32.5 30.8988 32.5H33.2988L30.5988 40ZM28.8988 34.4C28.2988 33.9 27.7988 33.7 27.1988 33.7C23.5988 33.7 20.2988 41.8 20.2988 45.5C20.2988 46.6 20.5988 47.3 21.1988 47.3H21.2988C23.6988 47.2 25.9988 42.4 26.6988 40.3L28.8988 34.4Z" fill="white"/>
<path d="M45.8 42.4004C43.8 46.6004 40.9 49.1004 37.4 49.1004C35.7 49.1004 34.5 48.1004 34.5 45.5004C34.5 44.1004 34.9 42.3004 35.7 39.9004L42 22.7004C42.3 21.9004 43 21.4004 43.8 21.4004H46.1L39.3 40.2004C38.2 43.2004 37.8 45.1004 37.8 46.2004C37.8 47.2004 38.2 47.6004 38.7 47.6004C38.9 47.7004 39 47.7004 39.2 47.7004C41.3 47.7004 43.4 45.3004 45 42.4004H45.8Z" fill="white"/>
<path d="M60.8004 42.4C58.2004 46.8 53.9004 49.1 50.4004 49.1C47.3004 49.1 44.9004 47.3 44.9004 43.5C44.9004 43.1 45.0004 42.6 45.0004 42.2C45.6004 37.6 49.6004 32.5 54.9004 32.5H55.0004C56.7004 32.6 57.4004 33.5 57.4004 34.7C57.4004 37.4 53.8004 41.9 48.7004 42.2C48.6004 42.8 48.5004 43.4 48.5004 43.9C48.5004 46.5 49.8004 47.7 51.6004 47.7C54.1004 47.7 57.5004 45.6 59.7004 42.4H60.8004ZM48.8004 41.4C52.8004 41 56.2004 37.3 56.2004 35.2C56.2004 34.4 55.7004 33.9 54.6004 33.9C51.7004 33.9 49.4004 39.1 48.8004 41.4Z" fill="white"/>
<path d="M78.4992 42.4H79.3992C77.7992 45.7 75.1992 49.2 72.2992 49.2C70.2992 49.2 69.3992 48.1 69.3992 46.1C69.3992 44.9 69.7992 43.3 70.2992 41.4C70.8992 39.4 71.5992 36.9 71.5992 35.5C71.5992 34.8 71.3992 34.4 70.9992 34.4C68.5992 34.6 63.3992 43.7 61.3992 48C61.0992 48.7 60.2992 49.2 59.4992 49.2H57.1992L62.6992 33.9C62.9992 33 63.7992 32.5 64.6992 32.5H66.9992L64.1992 40.2C66.6992 36.4 70.0992 32.6 72.9992 32.6C74.6992 32.7 75.2992 33.9 75.2992 35.6C75.2992 38 73.9992 41.3 73.5992 42.6C72.9992 44.5 72.4992 46.2 72.4992 47.1C72.4992 47.6 72.6992 47.9 72.9992 47.9C75.0992 47.7 77.0992 45 78.4992 42.4Z" fill="white"/>
<path d="M86.5 30H89.9L89.6 30.8H86.2L82.7 40.3C82.5 41 81.2 44 81.2 46C81.2 46.9 81.5 47.6 82.4 47.6C84.7 47.6 86.8 45 88.2 42.4H89.3C87.3 46.6 84.4 49.1 80.9 49.1C79.2 49.1 78 48 78 45.4C78 44 78.4 42.2 79.2 39.9L82.5 30.8H80.2L80.4 30H82.8L85.5 22.4C85.7 21.8 86.2 21.5 86.8 21.5H89.6L86.5 30Z" fill="white"/>
<path d="M104.099 42.4C101.499 46.8 97.1992 49.1 93.6992 49.1C90.5992 49.1 88.1992 47.3 88.1992 43.5C88.1992 43.1 88.2992 42.6 88.2992 42.2C88.8992 37.6 92.8992 32.5 98.1992 32.5H98.2992C99.9992 32.6 100.699 33.5 100.699 34.7C100.699 37.4 97.0992 41.9 91.9992 42.2C91.8992 42.8 91.7992 43.4 91.7992 43.9C91.7992 46.5 93.0992 47.7 94.8992 47.7C97.3992 47.7 100.799 45.6 102.999 42.4H104.099ZM92.1992 41.4C96.1992 41 99.5992 37.3 99.5992 35.2C99.5992 34.4 99.0992 33.9 97.9992 33.9C95.0992 33.9 92.7992 39.1 92.1992 41.4Z" fill="white"/>
<path d="M118.4 37.4008C116.8 41.7008 116.2 44.4008 116.2 46.1008C116.2 47.5008 116.7 48.0008 117.4 48.0008C118.9 48.0008 121.4 45.7008 123.1 42.4008H124C122.5 45.6008 119.8 49.1008 117.1 49.1008H116.9C114.2 48.9008 113.4 46.7008 113.4 44.1008V43.8008C112.1 46.4008 110.1 48.9008 107.6 48.9008H107.5C104.4 48.8008 103 45.9008 103 42.6008C103 37.9008 105.8 32.3008 110.9 32.3008H111.1C113.5 32.4008 114.7 33.7008 115.3 35.5008L120.1 22.3008C120.3 21.7008 120.9 21.3008 121.6 21.3008H124.2L118.4 37.4008ZM114.9 37.0008C114.5 35.4008 113.7 33.6008 112 33.6008H111.8C109 33.7008 106.4 40.6008 106.4 44.8008C106.4 46.6008 106.9 47.8008 108 47.8008C111.7 47.7008 113.9 39.9008 114.9 37.0008Z" fill="white"/>
<path d="M125.1 48.4V52.4C125.1 60.7 131.8 67.4 140.1 67.4H175.5C183.8 67.4 190.5 60.7 190.5 52.4V17C190.5 8.7 183.8 2 175.5 2H140.1C131.8 2 125.1 8.7 125.1 17V19.9" fill="white"/>
<path d="M164.2 31.6991C164.2 33.8991 162.4 35.7991 160 35.7991C158.6 35.7991 157.8 34.9991 157.4 34.1991V39.3991H158.6V39.6991H154.5V39.3991H155.7V28.0991H154.5V27.7991H157.4V29.2991C157.8 28.4991 158.6 27.6991 160 27.6991C162.4 27.5991 164.2 29.4991 164.2 31.6991ZM162.5 31.6991C162.5 30.3991 162.1 27.8991 160.1 27.8991C158.3 27.8991 157.5 29.3991 157.5 30.3991V32.9991C157.5 33.9991 158.3 35.4991 160.1 35.4991C162.1 35.4991 162.5 32.9991 162.5 31.6991Z" fill="black"/>
<path d="M172.5 33.6996H172.8C172.6 34.1996 171.5 35.7996 169.3 35.7996C166.9 35.7996 165.1 33.8996 165.1 31.6996C165.1 29.4996 166.9 27.5996 169.3 27.5996C171.5 27.5996 173.1 29.2996 173.1 31.3996H166.9C166.9 31.4996 166.9 31.5996 166.9 31.6996C166.9 32.9996 167.3 35.4996 169.3 35.4996C171.4 35.4996 172.3 34.0996 172.5 33.6996ZM166.9 31.0996H171.3C171.2 29.6996 170.8 27.8996 169.3 27.8996C167.5 27.8996 167 29.6996 166.9 31.0996Z" fill="black"/>
<path d="M181.1 29.8H180.8C180.3 28.5 179.9 27.9 178.8 27.9C177.3 27.9 176.8 30.2 176.8 31.5V35.3H178V35.6H173.9V35.3H175.1V28H173.9V27.7H176.7V30.2C176.9 28.8 177.6 27.5 179 27.5C179.3 27.5 179.5 27.6 179.9 27.7H180.6L181.1 29.8Z" fill="black"/>
<path d="M187.2 33.2996C187.1 33.8996 186.8 35.7996 185.1 35.7996C183.8 35.7996 182.6 35.0996 182.6 32.7996V27.9996H181.4V27.6996H182.6V25.5996H184.3V27.6996H186.8V27.9996H184.3V32.2996C184.3 33.5996 184.1 35.3996 185.3 35.3996C186.4 35.3996 186.8 33.7996 186.9 33.1996H187.2V33.2996Z" fill="black"/>
<path d="M128.6 14.5996L141.3 33.3996L128.6 54.8996H134.8L144.2 37.7996V28.2996L135.1 14.5996H128.6Z" fill="black"/>
<path d="M159.799 14.5L147.099 33.4L159.799 54.8H153.599L144.199 37.7V28.2L153.299 14.5H159.799Z" fill="black"/>
</svg>
