<?xml version="1.0" encoding="utf-8"?>
<!-- Generator: Adobe Illustrator 24.2.1, SVG Export Plug-In . SVG Version: 6.00 Build 0)  -->
<svg version="1.1" id="Layer_1" xmlns="http://www.w3.org/2000/svg" xmlns:xlink="http://www.w3.org/1999/xlink" x="0px" y="0px"
	 viewBox="0 0 197.7 69.4" style="enable-background:new 0 0 197.7 69.4;" xml:space="preserve">
<style type="text/css">
	.st0{fill:#FFFFFF;}
	.st1{font-family:'HARMONY';}
	.st2{font-size:17px;}
	.st3{font-family:'Hopsters';}
	.st4{font-size:50.9223px;}
</style>
<g>
	<text transform="matrix(1 0 0 1 156.8247 39.3686)" class="st0 st1 st2">pert</text>
	<g>
		<polygon class="st0" points="128.7,14.6 142.8,33.5 128.8,54.9 135.6,54.9 146,37.8 146,28.3 136,14.6 		"/>
	</g>
	<g>
		<polygon class="st0" points="164,14.6 149.9,33.5 163.9,54.9 157.1,54.9 146.7,37.8 146.7,28.3 156.7,14.6 		"/>
	</g>
</g>
<g>
	<text transform="matrix(1 0 0 1 7.5409 54.8162)" class="st3 st4">talented</text>
	<g>
		<path d="M125.1,48.4v4c0,8.3,6.7,15,15,15h35.4c8.3,0,15-6.7,15-15V17c0-8.3-6.7-15-15-15h-35.4c-8.3,0-15,6.7-15,15v2.9"/>
		<g>
			<g>
				<path class="st0" d="M164.2,31.7c0,2.2-1.8,4.1-4.2,4.1c-1.4,0-2.2-0.8-2.6-1.6v5.2h1.2v0.3h-4.1v-0.3h1.2V28.1h-1.2v-0.3h2.9
					v1.5c0.4-0.8,1.2-1.6,2.6-1.6C162.4,27.6,164.2,29.5,164.2,31.7z M162.5,31.7c0-1.3-0.4-3.8-2.4-3.8c-1.8,0-2.6,1.5-2.6,2.5V33
					c0,1,0.8,2.5,2.6,2.5C162.1,35.5,162.5,33,162.5,31.7z"/>
				<path class="st0" d="M172.5,33.7h0.3c-0.2,0.5-1.3,2.1-3.5,2.1c-2.4,0-4.2-1.9-4.2-4.1s1.8-4.1,4.2-4.1c2.2,0,3.8,1.7,3.8,3.8
					h-6.2c0,0.1,0,0.2,0,0.3c0,1.3,0.4,3.8,2.4,3.8C171.4,35.5,172.3,34.1,172.5,33.7z M166.9,31.1h4.4c-0.1-1.4-0.5-3.2-2-3.2
					C167.5,27.9,167,29.7,166.9,31.1z"/>
				<path class="st0" d="M181.1,29.8h-0.3c-0.5-1.3-0.9-1.9-2-1.9c-1.5,0-2,2.3-2,3.6v3.8h1.2v0.3h-4.1v-0.3h1.2v-7.3h-1.2v-0.3h2.8
					v2.5c0.2-1.4,0.9-2.7,2.3-2.7c0.3,0,0.5,0.1,0.9,0.2h0.7L181.1,29.8z"/>
				<path class="st0" d="M187.2,33.3c-0.1,0.6-0.4,2.5-2.1,2.5c-1.3,0-2.5-0.7-2.5-3v-4.8h-1.2v-0.3h1.2v-2.1h1.7v2.1h2.5v0.3h-2.5
					v4.3c0,1.3-0.2,3.1,1,3.1c1.1,0,1.5-1.6,1.6-2.2H187.2z"/>
			</g>
			<g>
				<g>
					<polygon class="st0" points="128.6,14.6 141.3,33.4 128.6,54.9 134.8,54.9 144.2,37.8 144.2,28.3 135.1,14.6 					"/>
				</g>
				<g>
					<polygon class="st0" points="159.8,14.5 147.1,33.4 159.8,54.8 153.6,54.8 144.2,37.7 144.2,28.2 153.3,14.5 					"/>
				</g>
			</g>
		</g>
	</g>
</g>
</svg>
