<svg width="618" height="475" viewBox="0 0 618 475" fill="none" xmlns="http://www.w3.org/2000/svg">
<path d="M413.073 270.895C410.849 236.196 422.211 240.763 386.152 234.836C385.162 227.303 383.806 216.315 373.804 216.682C372.651 218.246 371.168 218.865 369.359 218.536C367.754 218.291 366.149 217.92 365.036 219.525C360.465 221.501 355.65 223.722 354.415 229.279C353.055 233.108 351.576 238.914 347.869 240.89C337.374 242.739 326.631 238.665 316.38 240.148C311.194 240.763 316.629 256.448 315.268 259.903C313.663 261.142 313.911 262.498 314.282 264.104C314.897 266.202 311.316 267.436 310.575 265.216C310.082 263.362 306.994 263.24 307.735 261.015C309.096 256.571 305.018 252.37 307.491 248.296C307.984 245.95 306.008 242.988 304.032 241.753C296.006 243.232 287.854 241.876 279.828 243.729C279.58 245.579 277.359 246.198 277.111 248.174C276.74 251.755 274.764 254.843 272.911 257.683C266.245 269.661 253.648 270.154 246.238 259.288C244.755 258.298 244.633 256.2 243.52 255.088C242.286 254.102 241.671 252.867 241.422 251.384C240.803 247.555 235.865 248.174 233.026 248.296C225.737 250.15 217.096 245.579 210.92 250.272C201.289 257.19 208.08 276.823 212.154 285.838C212.403 286.331 212.647 286.825 212.525 287.321C210.427 291.644 214.872 293.62 215.858 296.83C216.229 305.227 217.589 313.501 217.341 322.02C217.341 323.254 217.96 324.367 219.194 324.118C222.034 323.751 224.503 325.356 227.343 324.986C229.318 324.737 229.689 325.356 230.06 327.699C225.986 329.924 222.282 328.811 218.946 326.22C214.994 328.811 219.194 331.529 219.936 334.494C223.639 343.633 265.007 330.913 275.754 333.256C279.828 333.998 284.025 333.753 288.102 333.382C293.411 335.481 298.846 332.519 302.92 329.308C306.379 325.727 303.661 320.292 304.525 315.97C302.671 313.501 305.144 310.661 304.032 307.944C303.784 303.992 305.515 300.163 304.896 296.089C306.379 288.063 320.454 295.099 322.556 286.454C322.927 285.097 323.665 283.74 325.025 283.121C325.767 283.121 325.889 284.478 326.631 283.863C327.494 282.873 327.001 281.516 328.113 280.652C329.47 282.628 327.494 284.233 327.865 285.838C328.606 286.454 328.977 285.097 329.719 285.838C328.236 293.371 325.767 303.866 317.863 306.71C315.024 306.71 313.785 308.437 313.048 310.906C317.492 351.658 313.911 327.825 355.031 334.988C365.036 335.358 375.038 334.246 385.04 333.256C387.264 333.627 388.992 330.543 391.338 331.899C394.549 331.651 397.637 329.675 401.096 329.924C402.945 329.924 404.551 328.811 405.418 327.084C407.023 324.489 403.316 323.254 403.565 321.156C405.292 318.81 402.701 313.253 407.146 313.872C407.639 317.327 405.911 321.034 408.258 324.737C411.22 321.405 409.737 317.697 410.727 313.746C412.332 299.421 412.454 284.975 413.073 270.895Z" fill="black"/>
<path d="M206.227 182.476C207.587 198.903 211.29 214.832 211.29 231.132C214.994 231.874 211.91 227.303 213.144 225.453C214.13 225.205 215.12 224.463 216.228 224.712C220.922 243.974 216.354 243.852 239.568 242.369C242.163 241.876 242.163 241.753 242.779 244.345C243.276 245.95 244.881 247.062 246.115 248.052C250.312 254.965 249.941 245.457 256.117 247.062C265.997 250.521 269.207 238.788 275.876 234.343C277.604 236.07 275.876 237.553 275.876 239.281C282.668 240.148 289.337 238.543 296.128 237.924C298.475 237.553 300.944 237.431 302.3 234.836C302.549 234.22 303.539 233.972 304.032 233.601C305.389 227.303 302.3 220.882 305.144 214.71C309.096 214.71 309.218 211.251 305.637 210.139C301.933 208.534 297.363 209.397 296.128 204.582C294.401 199.273 288.595 202.484 286.619 199.025C276.74 182.847 291.806 167.904 308.106 166.669C307.735 160.126 312.551 149.754 306.501 145.06C304.032 145.305 301.933 144.69 299.709 143.7C295.264 143.455 291.187 144.07 287.235 140.86C288.966 140.615 288.473 139.133 289.459 138.269C292.054 138.02 294.894 138.269 297.611 137.65C296.743 134.81 300.202 136.045 300.573 134.191C289.211 131.107 276.247 136.664 264.143 135.303C248.833 135.303 233.641 138.143 218.453 135.674C206.597 134.562 207.339 145.553 207.09 154.321C206.597 163.707 206.475 173.216 206.227 182.602V182.476Z" fill="black"/>
<path d="M445.182 160.99C447.158 154.94 442.587 147.9 441.972 141.479C439.132 128.76 435.054 116.412 431.103 104.059C428.511 100.849 426.78 96.4042 423.325 94.0576C420.115 92.8232 418.013 90.1058 416.163 87.5146C409.616 79.8556 398.75 87.2662 390.354 86.7731C389.242 84.7972 388.252 80.4747 385.164 82.0799C380.597 84.1781 375.41 83.8074 370.595 85.2903C359.355 87.6369 346.636 85.2903 336.511 90.6026C338.361 93.5646 334.043 94.9214 334.536 97.6387C336.018 98.2578 339.6 97.6387 339.103 99.9853C337.127 107.518 347.748 127.526 341.327 132.093C336.756 135.674 329.472 135.181 328.115 142.221C327.373 145.06 325.891 148.022 326.877 150.862C327.744 153.457 326.51 156.174 328.115 158.521C326.51 163.829 326.51 168.523 331.941 171.24C334.41 174.573 337.994 172.104 341.205 172.845C345.527 179.514 343.303 196.43 355.774 192.233C369.731 187.54 385.783 188.652 383.559 169.264C383.314 164.942 391.092 157.286 395.662 157.657C397.145 157.657 398.624 156.052 400.23 156.297C401.961 156.667 403.318 155.804 404.678 155.062C407.518 153.579 410.48 152.838 413.319 155.31C414.187 156.052 416.037 155.804 416.656 156.916C417.768 159.878 421.101 161.238 422.09 164.078C422.461 166.424 423.57 168.523 423.57 170.992C423.57 172.226 423.818 173.587 425.301 174.202C430.98 171.362 453.208 170.747 445.182 160.741V160.99Z" fill="black"/>
<path d="M194.128 330.294C191.533 328.811 190.298 331.777 187.952 331.529C183.136 331.284 180.048 336.47 175.11 336.344C173.008 337.705 171.9 340.545 168.812 340.667C168.193 342.398 166.714 343.136 165.105 343.384C159.425 346.346 154.117 342.15 148.311 341.16C144.482 340.545 143.374 337.579 141.272 334.617C142.261 333.256 141.272 331.406 142.877 330.172C144.73 328.689 145.72 326.343 146.213 324.118C146.584 322.639 148.311 321.527 147.818 320.044C147.199 317.824 148.434 316.463 149.672 315.351C158.069 303.002 170.169 299.177 183.259 293.62C188.693 293.494 195.733 288.063 192.397 282.135C189.928 278.921 185.483 275.588 181.409 277.193C179.062 278.183 176.345 278.306 173.998 279.788C173.505 280.159 173.008 279.788 172.515 279.54C169.427 278.306 167.948 282.75 164.86 283.121C157.205 286.087 150.78 291.766 143.374 295.347C136.456 290.532 143.374 286.702 145.223 281.887C145.223 279.418 146.336 277.193 146.955 274.724C148.56 269.167 155.474 268.426 158.81 264.226C164.612 262.869 169.183 259.04 172.271 254.102C175.726 249.657 168.441 244.222 164.241 244.1C161.772 244.1 159.303 244.841 156.956 243.852C156.586 243.729 155.967 243.852 155.722 244.222C154.117 245.827 151.399 246.198 150.287 248.422C148.682 250.272 145.842 250.643 144.73 252.99C143.618 254.472 142.261 256.2 140.408 255.214C138.68 254.224 139.792 251.755 140.163 250.272C144.36 230.269 121.268 242.988 119.044 254.224C114.228 263.362 114.35 273.861 111.266 283.614C110.276 285.468 112.994 287.073 111.266 288.678C108.793 291.644 111.637 294.854 110.525 297.816C109.661 300.782 109.661 303.495 112.745 305.471C111.511 307.696 112.378 309.672 113.487 311.77C112.008 312.511 111.759 314.116 110.525 314.858C106.202 312.882 107.807 301.89 106.818 297.445C105.831 289.913 105.461 281.764 104.104 274.724C98.4209 270.895 106.202 262.621 93.6053 264.226C89.6535 270.154 89.7796 277.193 90.1466 284.111C82.2467 287.566 98.2986 318.194 98.1762 326.962C98.5469 329.553 99.6554 332.148 97.6795 334.617C97.3125 335.11 97.4348 336.1 97.3125 336.841C96.9418 339.062 97.3125 341.286 95.7036 343.136C95.3366 346.224 95.5812 349.805 93.9761 352.771C93.1123 354.376 92.3709 356.103 92.3709 357.831C92.3709 361.045 90.0243 363.759 91.0141 367.095C89.5312 371.788 86.4432 376.111 83.6035 380.185C88.7898 388.581 93.2346 397.104 99.04 404.882C101.88 408.218 104.104 404.759 106.573 402.906C109.906 400.808 110.032 396.114 113.857 394.387C118.18 391.299 121.39 387.225 126.947 386.606C135.222 384.752 140.656 378.087 146.706 372.652C154.732 364.626 166.343 364.748 175.233 358.572C182.024 353.015 211.54 338.569 194.128 330.543V330.294Z" fill="url(#paint0_linear_376_694)"/>
<path d="M83.8518 427.973C79.7739 426.739 79.5293 422.542 76.1929 420.196C69.7721 415.503 65.698 408.711 59.5219 403.896C51.496 412.415 40.8751 417.356 32.23 425.011C30.7509 427.603 27.2921 427.232 25.5646 429.705C23.9594 432.422 20.13 432.667 18.8955 435.755C18.3987 437.238 20.13 437.608 20.5007 438.472C20.623 439.458 19.3886 440.077 19.7593 441.56C21.3645 443.165 24.0818 442.546 25.5646 444.4C27.9075 448.352 31.6147 450.201 35.9372 451.313C41.4942 454.524 47.6665 456.748 53.4719 459.465C58.5358 461.812 63.7221 458.476 66.5617 454.402C68.0446 449.708 88.5413 430.568 83.7257 427.851L83.8518 427.973Z" fill="url(#paint1_linear_376_694)"/>
<path d="M527.425 277.193C525.204 272.129 521.252 268.426 518.413 263.855C517.671 260.771 515.94 258.547 513.964 256.322C512.237 253.112 510.88 249.531 507.914 247.184C503.469 238.046 497.912 228.908 491.614 220.511C490.131 218.165 489.638 215.203 486.921 213.842C485.808 212.856 486.428 210.88 485.193 209.891C483.462 207.792 482.598 204.953 480.5 203.099C480.007 202.606 479.636 201.865 480.5 201.001C483.71 201.372 487.291 204.089 490.624 203.099C493.341 201.865 495.814 204.83 498.035 203.099C502.85 197.542 491.984 191.37 487.169 190.628C483.71 190.999 485.193 186.183 481.364 187.047C475.065 185.564 471.113 180.378 463.707 183.34C458.643 184.208 463.21 188.652 461.112 191.492C458.765 196.185 462.346 201.123 461.605 205.939C462.346 208.041 463.951 209.768 466.049 211.125C468.025 208.656 466.791 205.939 467.532 203.47C468.274 201.001 468.644 198.532 469.137 195.815C476.177 200.259 477.289 208.656 481.983 214.954C491.862 231.625 500.381 249.408 511.866 265.093C518.413 272.749 518.78 288.063 530.513 290.283C531.006 289.913 531.376 289.542 531.502 289.049C532.489 284.356 530.142 280.774 527.302 277.193H527.425Z" fill="black"/>
<path d="M410.605 376.233C405.419 370.921 406.527 357.215 401.837 356.967C400.97 357.464 400.599 358.202 400.848 358.943C401.218 364.129 398.501 369.071 396.525 373.638C387.139 389.323 375.409 384.63 375.78 393.152C378.127 395.002 381.089 395.002 383.806 395.992C385.289 396.363 386.275 397.968 387.758 397.968C396.154 401.423 401.589 411.302 402.701 420.318C403.317 423.777 407.887 421.923 408.258 419.084C410.479 407.599 415.05 396.485 426.657 391.67C427.769 391.176 428.633 390.309 428.51 388.83C421.719 385.493 414.186 383.518 410.479 376.233H410.605Z" fill="black"/>
<path d="M379.978 429.208C378.499 426.987 377.88 424.392 376.523 422.046C375.533 419.825 371.708 420.318 371.83 422.913C371.211 426.368 371.211 430.198 368.742 432.915C366.273 437.112 360.594 436.374 358.121 439.955C365.039 444.274 373.928 448.967 375.289 458.602C375.533 460.207 376.275 461.812 378.373 462.554C380.968 455.265 384.301 447.488 391.834 444.151C393.317 443.536 394.799 442.546 394.799 440.57C389.365 437.238 383.189 435.506 380.227 429.208H379.978Z" fill="black"/>
<path d="M93.4817 409.204C86.5642 403.525 84.3436 394.509 79.402 387.225C73.845 389.445 70.7607 394.509 65.9414 397.349C72.3659 405.623 79.7727 412.537 88.047 418.591C92.8626 421.06 91.6281 413.156 95.8283 412.292C95.3352 410.809 94.3454 410.068 93.4817 409.204Z" fill="url(#paint2_linear_376_694)"/>
<path d="M571.635 392.04C567.806 387.347 562.126 377.961 555.457 383.273C553.974 383.644 553.604 384.752 553.604 386.235C553.73 395.866 560.024 405.872 569.04 409.823C579.168 412.166 575.957 396.733 571.757 392.04H571.635Z" fill="url(#paint3_linear_376_694)"/>
<path d="M239.94 48.4896C240.433 47.2551 240.929 46.3914 242.409 45.8983C246.731 45.0346 248.707 40.9567 251.673 37.9947C253.155 36.8826 252.414 35.029 252.288 33.5499C252.288 32.067 250.56 32.3154 249.574 31.8187C244.384 32.067 238.705 36.3896 236.978 41.4535C231.295 41.5758 225.738 46.5137 225.615 51.4553C225.615 60.345 238.705 53.9243 239.94 48.3673V48.4896Z" fill="black"/>
<path d="M241.793 73.4349C247.228 71.8297 269.085 69.4831 268.715 63.3107C259.328 55.9002 255.376 64.0522 248.214 61.5795C246.116 60.7157 245.99 64.0522 242.409 62.5693C235.988 60.9641 233.026 75.1661 241.793 73.4349Z" fill="black"/>
<path d="M271.803 93.5646C265.875 87.6369 257.601 89.9835 250.561 86.6508C247.966 85.168 244.882 85.0419 241.916 84.4265C238.583 83.6851 235.618 91.218 240.559 91.8371C243.77 93.5646 245.99 96.5266 250.19 94.9214C253.156 94.1837 256.118 97.1457 259.206 97.0233C263.899 97.7648 268.589 96.6526 273.408 96.1596C273.408 94.4284 272.667 93.9353 271.925 93.3162L271.803 93.5646Z" fill="black"/>
<path d="M377.507 30.0912C381.088 28.3636 386.275 25.1496 383.064 20.46C377.63 22.5583 370.964 18.9772 368.988 27.0031C371.457 28.8567 374.049 30.8326 377.507 29.9688V30.0912Z" fill="url(#paint4_linear_376_694)"/>
<path d="M368.37 52.6898C371.951 52.6898 373.804 49.1087 376.766 47.6259C379.606 45.65 379.977 43.9224 378.001 40.7121C369.604 41.9465 366.272 43.7964 368.492 52.6898H368.37Z" fill="url(#paint5_linear_376_694)"/>
<path d="M426.287 76.1522C423.077 77.8797 418.139 76.1522 416.904 80.7231C421.471 81.2161 426.906 79.1179 430.116 83.192C430.487 83.9334 431.351 83.8074 432.337 83.4367C433.698 78.4988 431.97 73.9279 426.287 76.1522Z" fill="url(#paint6_linear_376_694)"/>
<path d="M405.42 68.7417C406.406 66.1504 404.801 62.6916 402.454 61.0865C401.22 62.4433 400.972 63.9261 401.342 65.409C401.342 69.6091 399.244 72.3228 399.737 77.2644C403.567 75.0401 404.308 71.585 405.42 68.6193V68.7417Z" fill="url(#paint7_linear_376_694)"/>
<path d="M96.2001 46.6398C93.8534 46.3914 92.3706 44.6639 90.7654 43.181C88.1704 42.9326 85.9499 42.9326 84.3447 40.2153C82.3688 41.0828 80.7636 40.9567 80.1445 38.4878C77.3048 35.5258 72.3669 33.1792 67.9184 34.0429C64.8341 33.4239 61.253 32.6824 58.4096 30.8326C54.3355 28.1153 49.3976 26.6324 45.1974 30.0911C41.494 31.9447 44.949 37.0049 41.3679 39.4776C38.7767 41.4535 39.025 45.1569 36.6784 47.2551C35.937 47.8742 35.4402 48.8603 36.0593 49.8501C37.4161 53.9243 31.1214 56.1485 32.4783 60.7157C26.7989 69.6091 26.1798 80.597 21.735 90.2319C20.0075 93.813 20.2522 97.5164 20.7452 101.346C20.3745 104.43 21.1159 105.668 24.2039 106.406C36.3077 107.396 47.7924 111.348 59.6478 113.939C72.2409 115.051 72.86 106.035 77.4272 97.0233C81.379 87.0178 85.0861 76.8936 88.6672 66.8918C90.3947 64.4191 92.2483 61.9502 92.1222 58.7398C99.2844 60.2227 98.2983 50.3432 96.2001 46.6398Z" fill="url(#paint8_linear_376_694)"/>
<path d="M530.511 137.527C531.375 139.874 533.477 140.489 534.833 142.343C535.946 145.305 537.551 147.9 539.278 150.495C540.268 151.974 542.118 152.716 542.737 154.321C543.352 155.804 544.094 156.297 545.454 156.423C545.328 159.633 547.553 160.99 549.529 162.966C551.627 165.312 552.246 165.312 555.085 162.717C550.515 153.086 541.873 146.046 537.425 136.293C532.365 129.501 526.93 122.832 522.359 115.793C522.359 113.568 518.778 110.977 519.89 109.372C521.744 109.001 521.866 106.654 523.597 106.161C526.311 105.172 527.794 101.961 531.004 102.332C535.082 101.097 539.034 97.3941 541.132 93.6869C541.254 93.3162 541.503 92.9455 541.996 92.9455C543.972 94.306 545.328 96.2819 546.934 98.0094C548.294 99.4923 550.641 100.108 550.763 102.703C550.763 103.196 551.504 103.692 551.997 104.059C553.11 105.172 554.715 105.791 554.592 107.767C554.592 108.382 555.334 108.753 555.949 109.001C560.891 111.348 562.618 117.398 566.693 120.734C571.756 124.189 576.079 131.97 583.241 128.76C577.065 118.388 568.053 110.358 560.023 101.468C554.592 97.8871 551.256 91.0956 544.342 89.8612C545.947 85.9094 548.542 82.9437 551.875 80.8454C553.851 82.0799 554.963 84.6749 557.554 85.0419C558.915 85.2903 559.901 85.7833 560.765 86.7731C562.248 88.6267 565.213 88.5007 566.941 89.8612C573.239 93.3162 577.933 98.2578 583.612 102.332C584.969 105.172 587.193 107.148 590.403 107.641C592.008 107.641 592.502 109.743 594.107 109.865C597.565 111.718 598.059 106.777 595.467 105.298C583.612 93.5646 571.141 81.9576 554.715 77.142C554.715 75.9038 556.075 75.2885 556.691 74.1763C554.715 70.1022 554.466 65.6573 550.022 63.4331C546.07 61.0865 542.859 57.8761 537.921 58.6175C537.302 59.6036 537.18 61.0865 536.068 61.5795C532.858 63.1847 530.263 71.0883 532.238 74.2987C533.351 76.1522 530.14 77.2644 530.633 79.1179C531.252 81.9576 529.647 83.6851 527.794 85.4126C522.485 91.0956 518.04 96.1596 510.752 99.1216C512.976 101.961 513.718 106.035 517.792 107.274C513.718 110.977 516.557 115.67 519.026 119.003C520.509 126.165 527.794 130.736 530.511 137.405V137.527Z" fill="url(#paint9_linear_376_694)"/>
<path d="M87.9263 153.95C68.9087 156.667 58.5362 176.426 51.374 192.234C45.9394 199.766 48.286 211.744 41.4945 217.549C22.5993 232.367 17.2907 259.41 20.375 282.009C18.8959 286.087 22.7216 289.297 21.3648 293.371C24.5752 301.153 26.1804 310.042 31.3667 316.711C33.9617 323.255 45.9394 340.667 54.0914 336.222C38.6549 328.938 31.3667 307.447 26.9218 292.137C25.0683 288.8 26.7995 284.975 24.6975 281.764C23.0924 278.428 24.9459 274.969 24.3268 271.514C23.9598 253.483 29.8838 233.231 43.4704 220.76C44.2119 221.375 44.4565 222.117 44.2119 222.858C42.4806 229.65 44.7049 236.938 46.8031 243.481C50.7549 254.472 66.5621 255.829 72.4898 245.457C81.0088 231.381 69.2795 210.261 51.9894 212.486C51.9894 205.446 56.931 199.644 57.9171 192.604C60.1414 190.009 62.488 187.663 62.1173 183.837C63.5964 183.34 64.3379 182.354 64.5862 180.749C65.943 176.426 70.0209 173.461 72.3675 169.757C77.1831 163.214 85.9504 159.878 93.361 156.297C91.6297 154.076 90.5176 153.579 87.9263 154.076V153.95ZM51.7447 215.944C57.1757 211.251 65.45 219.029 68.045 224.093C70.0209 227.058 69.0311 230.762 70.7623 233.724C68.2897 257.19 50.2619 252.867 49.7688 231.874C49.6428 226.562 48.1637 220.389 51.7447 215.944Z" fill="black"/>
<path d="M278.716 412.292C275.876 411.302 273.778 414.142 272.046 415.625C266.982 415.996 266.86 422.665 262.167 423.529C261.796 423.529 261.303 423.899 261.181 424.27C260.191 426.617 256.981 427.358 256.736 430.32C250.312 434.149 245.867 441.063 239.446 445.141C236.729 438.224 236.48 430.568 235.246 423.284C232.899 416.737 225.737 416.737 222.775 422.665C219.316 427.729 219.442 435.632 213.515 438.472C209.066 431.803 211.413 412.785 200.425 413.156C196.347 417.849 192.15 422.913 187.95 427.48C183.876 431.803 179.676 436.248 178.935 442.668C176.221 446.869 172.514 450.079 175.724 456.129C179.676 453.908 180.54 447.732 184.492 444.893C191.287 439.213 193.63 429.579 201.659 425.504C202.401 434.027 204.377 439.458 208.573 446.62C212.525 451.562 221.17 446.127 222.404 440.57C224.009 437.111 225.244 431.803 228.58 429.949C228.454 444.644 231.542 464.033 249.818 449.831C255.624 442.424 262.293 435.755 267.231 427.603C270.441 423.651 276.247 414.02 281.804 419.825C282.419 417.108 281.555 413.527 278.716 412.537V412.292Z" fill="black"/>
<path d="M556.569 415.254C555.706 412.537 553.604 410.561 552.618 407.97C550.149 405.375 553.359 394.387 548.91 397.349C545.329 400.315 544.095 394.387 540.514 395.128C537.426 400.437 531.502 404.018 531.253 410.561C530.512 411.058 529.277 410.194 528.658 411.302C527.302 413.897 524.955 415.996 524.091 418.961C522.238 426.987 532.117 432.422 538.293 427.48C544.959 423.284 553.111 421.553 559.531 417.23C558.668 416.366 557.062 416.366 556.692 415.254H556.569Z" fill="url(#paint10_linear_376_694)"/>
<path d="M604.728 341.531C601.024 340.545 596.95 340.915 593.369 340.296C593.736 335.11 604.235 330.172 598.059 325.23C594.355 326.465 592.257 330.294 588.798 331.9C586.452 329.431 588.057 324.86 585.71 322.142C584.231 320.293 579.412 321.405 581.017 324.118C582.007 325.849 579.289 326.465 579.909 328.318C579.412 330.665 581.388 332.889 581.017 335.11C580.153 336.222 580.772 337.579 580.524 339.062C575.46 339.31 569.165 335.603 566.57 341.657C568.917 344.003 572.498 342.643 575.46 344.867C572.005 348.448 567.556 351.165 569.165 356.967C573.484 357.831 576.698 354.991 580.153 353.141C585.339 351.907 582.993 363.759 590.155 362.153C590.155 356.845 589.417 351.659 590.033 346.472C596.58 343.262 602.878 347.707 609.05 345.482C608.309 343.384 606.952 341.901 604.728 341.657V341.531Z" fill="black"/>
<path d="M568.177 146.295C558.668 131.107 540.885 120.856 534.835 103.566C528.044 107.767 545.33 131.848 550.765 133.946C555.21 139.996 560.151 146.914 567.558 150.124C569.167 149.012 569.041 147.529 568.177 146.172V146.295Z" fill="url(#paint11_linear_376_694)"/>
<path d="M504.333 101.961C503.347 106.035 506.802 110.606 511.373 110.729C513.471 107.025 507.173 96.0335 504.333 101.961Z" fill="url(#paint12_linear_376_694)"/>
<path d="M555.579 394.631C555.579 393.519 555.209 393.026 554.223 392.782C554.223 393.768 554.223 394.631 555.579 394.631Z" fill="url(#paint13_linear_376_694)"/>
<path d="M617.327 81.3385C615.97 75.6592 617.82 68.371 614.239 63.5554C607.57 55.0364 596.827 60.1004 588.801 63.1847C585.591 64.7899 582.503 70.1022 579.044 66.7658C569.906 59.2329 564.719 59.6036 556.074 67.6332C550.766 72.6935 555.088 53.1829 539.774 62.1986C531.007 53.3052 521.376 45.65 511.867 37.7464C508.657 35.3998 504.827 31.0773 500.631 31.6963C501.617 33.4239 503.715 33.3015 504.582 34.9067C499.519 35.1551 494.825 31.3256 490.01 29.7204C484.823 27.0031 478.647 25.5203 473.71 22.4359C467.659 17.2497 459.385 18.4841 452.345 16.0115C434.562 11.815 416.038 3.91143 398.255 12.1857C389.736 16.7529 370.225 17.7427 370.84 30.2135C371.337 34.7844 374.548 34.9067 378.003 36.2635C375.534 41.2051 368.62 43.7964 368.62 49.9725C371.953 67.3849 388.008 54.295 395.541 47.7482C397.02 45.8983 399.737 47.3812 398.625 49.6018C396.649 59.1106 394.551 68.99 393.687 78.4988C388.746 81.9576 381.954 81.4608 376.894 83.8074C364.297 88.3783 350.466 89.1198 337.254 92.7008C333.917 93.3162 330.585 96.0335 330.955 98.8732C330.955 106.532 330.707 113.694 332.805 121.101C317.369 124.931 313.914 145.305 320.583 158.028C321.691 160.867 323.793 162.473 325.892 164.2C329.473 169.016 336.635 167.659 341.821 169.757C342.44 177.29 344.29 190.38 354.418 189.023C366.147 186.183 378.373 184.082 389.736 180.007C390.229 176.178 388.501 172.352 389.984 168.645C392.082 160.867 399.737 155.555 406.655 161.731C408.383 163.336 410.607 164.693 410.607 167.781C410.607 170.621 415.793 174.08 419.619 172.968C426.659 169.635 441.476 170.869 443.085 161.731C441.973 157.779 441.724 153.579 440.738 149.505C437.773 137.157 436.29 124.438 433.698 112.089C432.093 107.889 429.005 89.8612 433.079 88.256C444.442 87.6369 455.063 82.3283 466.177 80.7231C472.475 80.9678 478.773 80.5971 485.194 80.4747C494.577 80.104 505.569 76.8936 511.003 87.1439C510.384 88.3783 509.769 89.4905 509.15 90.7249C500.382 91.5887 506.188 102.332 508.657 106.903C494.084 124.56 520.883 137.157 523.845 153.579C520.141 158.028 514.584 170.128 515.326 175.933C516.312 183.466 523.971 190.38 531.748 189.268C537.924 186.55 555.337 180.378 555.952 173.338C556.445 169.757 561.631 169.757 563.24 166.298C564.968 167.04 570.773 159.755 570.402 158.028C573.984 155.804 574.599 151.852 577.316 148.89C582.38 142.465 586.947 135.181 589.787 127.4C591.763 124.315 593.001 120.363 596.212 118.139C598.187 114.929 598.68 109.987 603.003 108.26C604.73 107.641 603.989 104.927 605.843 104.679C606.584 105.298 606.829 106.035 606.091 106.777C601.398 113.075 598.929 120.363 594.48 126.906C591.396 130.117 590.406 134.932 587.444 138.391C586.703 139.255 585.468 140.986 587.073 142.591C601.272 129.375 619.181 101.468 617.82 81.2162L617.327 81.3385ZM384.672 24.0411C386.648 18.6065 419.619 8.72699 423.941 13.0495C423.571 14.0356 422.585 14.0356 421.843 13.7909C419.003 12.8011 416.164 13.7909 413.32 13.9133C402.084 15.0254 393.81 24.1635 385.535 30.9549C383.437 33.1792 380.846 30.9549 378.251 30.5842C379.979 27.7445 383.437 27.2515 384.672 24.0411ZM375.163 27.6222C376.894 25.5203 379.115 24.5342 381.584 23.7928C379.979 26.017 377.758 27.2515 375.163 27.6222ZM376.397 44.1671C376.397 46.6398 374.548 47.0105 373.313 47.9966C373.928 46.5137 374.422 44.9085 376.397 44.1671ZM390.599 46.5137C385.906 50.2209 378.744 54.4173 372.942 51.826C384.798 42.0689 376.275 44.0448 381.832 38.9809C389.736 31.8187 398.01 24.5342 407.27 19.0995C413.569 16.3822 424.438 17.6167 430.733 19.841C416.164 27.2515 402.948 35.7705 390.599 46.5137ZM403.567 66.8918C405.421 69.1124 402.577 72.6935 401.343 75.0401C398.874 74.054 400.479 65.7797 403.567 66.8918ZM432.216 132.093C433.45 134.932 432.586 138.391 433.328 141.357C433.576 143.329 434.685 145.183 433.821 147.281C435.055 152.471 436.909 157.779 437.65 163.214C431.474 165.805 425.176 166.547 418.51 167.288C413.569 155.555 410.358 152.345 397.517 153.579C387.141 155.433 377.265 167.288 378.992 177.909C369.606 180.626 360.716 181.983 350.959 183.588C349.232 180.378 348.368 176.797 348.861 173.094C347.378 170.376 347.626 167.288 347.378 164.323C347.007 160.497 341.206 161.854 338.362 161.609C323.423 162.224 323.174 140.615 329.102 131.229C333.054 125.92 340.587 128.76 338.981 123.945C337.869 121.35 338.488 118.758 338.733 116.163C336.883 111.718 337.499 106.777 335.278 102.454C334.043 99.9853 334.781 98.9992 337.625 98.9992C344.787 98.0094 351.578 93.5646 358.985 94.0576C372.446 90.8473 386.155 87.8853 399.864 85.2903C403.074 84.3042 406.407 84.1781 409.739 84.0558C411.1 83.8074 411.964 84.1781 412.827 85.168C423.697 96.5266 424.067 80.5971 426.166 106.903C424.067 105.049 424.805 101.839 422.336 99.9853C424.56 110.484 429.254 121.35 431.967 132.093H432.216ZM427.4 81.2162C424.805 81.3385 420.731 83.3144 419.003 80.2263C420.853 76.8936 425.547 74.9177 429.128 76.1522C429.128 77.7574 429.128 80.4747 427.4 81.2162ZM427.522 111.225C426.659 110.484 426.659 109.987 426.781 109.249C428.142 108.508 428.883 110.236 427.522 111.225ZM414.559 74.4247C416.286 67.3849 419.745 59.3589 421.965 51.9484C425.053 45.65 435.426 45.5276 440.983 40.8344C449.999 45.1569 459.385 38.6101 450.121 55.7778C445.554 59.3589 439.749 61.7055 433.943 63.3107C432.216 63.5554 430.488 64.5452 429.005 66.028C424.805 69.6091 418.633 70.3469 414.559 74.2987V74.4247ZM506.062 76.0299C501.987 72.3228 485.936 73.5609 480.379 74.7954C463.459 73.4349 448.145 80.7231 431.474 81.8315C431.474 75.9038 432.216 73.6833 425.176 74.054C425.795 72.2004 427.278 71.459 428.757 71.0883C434.562 69.7315 439.626 66.2727 445.306 64.6675C454.321 61.3348 461.976 47.7482 454.814 39.5999C443.823 34.1653 432.586 41.8205 422.091 44.9085C412.827 50.3432 414.188 64.2968 409.739 73.1902C408.753 75.7815 405.543 79.611 402.455 77.7574C402.826 72.3228 410.607 67.6332 402.455 62.814C403.319 53.9243 403.815 42.0689 412.086 36.7603C423.819 29.8428 435.552 20.8308 449.876 21.9392C456.175 22.4359 463.337 20.7047 468.523 25.2756C475.808 30.8326 485.687 32.5601 492.972 37.3757C492.972 37.624 493.591 37.7464 493.839 37.7464C496.182 37.005 497.42 38.8585 498.655 40.093C511.248 49.1087 526.81 51.5777 536.193 65.7797C530.265 72.4488 520.883 81.0938 513.721 85.5387C510.384 83.8074 507.915 79.3626 505.939 75.9038L506.062 76.0299ZM509.027 95.1698C510.139 90.4766 521.995 91.4664 527.796 83.8074C531.871 78.6212 537.428 74.7954 539.774 68.6193C540.516 66.5211 542.492 67.5072 544.593 66.3951C546.073 70.5952 551.63 71.8297 551.63 76.6453C540.145 82.4506 542.121 97.0233 529.402 100.478C527.181 101.591 523.971 101.717 522.859 104.308C522.488 105.172 521.995 106.035 520.883 106.532C514.462 105.913 512.608 99.6146 509.15 95.4182L509.027 95.1698ZM593.246 100.234C591.148 104.308 589.172 108.382 585.713 111.47C585.591 114.68 582.132 116.041 581.761 119.251C579.17 122.706 575.711 126.043 573.487 130.117C567.314 139.748 561.757 149.505 554.347 158.15C552.619 160.248 551.507 163.214 549.902 165.435C546.814 167.288 544.223 169.635 541.75 172.352C539.159 169.88 539.53 166.795 537.183 164.323C535.948 163.088 534.959 161.854 535.822 159.878C536.193 159.014 535.7 158.15 535.085 157.531C531.133 153.209 530.885 147.036 527.426 142.465C520.757 134.688 513.35 126.784 509.891 116.905C508.534 110.484 517.302 110.606 521.376 108.011C522.488 111.963 522.362 116.534 527.303 118.758C525.698 113.201 523.967 104.801 531.626 104.43C534.466 101.717 538.666 101.346 541.009 98.0094C548.419 92.5748 543.481 91.711 547.678 88.1299C551.507 86.154 554.099 81.0938 558.299 80.2263C558.669 80.2263 559.289 80.3524 559.533 79.9817C560.397 77.8797 562.744 77.7574 564.226 76.5229C563.978 72.3228 559.904 75.4108 558.299 72.8195C573.984 58.1245 581.02 87.3885 593.987 89.6128C594.606 91.3403 595.592 92.8232 597.075 94.1837C595.348 96.0335 594.236 98.2578 593.246 100.356V100.234Z" fill="#000001"/>
<mask id="mask0_376_694" style="mask-type:luminance" maskUnits="userSpaceOnUse" x="0" y="230" width="199" height="238">
<path d="M0 230.476H198.791V467.732H0V230.476Z" fill="white"/>
</mask>
<g mask="url(#mask0_376_694)">
<path d="M191.41 322.761C188.57 322.761 185.234 322.761 182.643 323.503C181.779 324.86 180.296 324.86 179.062 325.356C173.627 327.455 169.427 331.406 164.118 333.875C158.191 338.813 152.634 333.382 146.954 330.913C140.656 328.441 148.311 314.609 151.399 310.906C152.756 308.685 153.497 305.968 156.708 305.597C161.401 301.275 166.836 298.187 172.637 295.47C179.555 290.035 197.708 292.752 195.236 280.033C191.162 265.831 172.27 268.674 161.279 271.388C155.351 273.49 151.028 277.564 145.842 280.897C145.842 267.192 163.747 262.621 170.787 252.99C173.256 248.789 175.481 240.519 168.689 239.529C164.241 237.553 159.918 237.553 155.473 239.651C149.546 241.383 144.978 246.076 139.051 247.433C145.101 237.553 135.221 227.058 126.083 232.245C113.735 242.988 108.055 253.483 105.338 269.909C101.631 264.723 100.893 256.941 93.9757 254.843C81.6272 257.19 81.2565 272.5 81.0081 282.502C84.4669 307.203 97.186 318.932 88.2963 345.112C84.3446 351.039 85.579 358.943 82.1203 364.871C80.1444 357.464 69.5235 360.426 69.5235 367.34C69.0304 371.911 71.2547 376.974 70.2649 381.171C68.289 383.024 65.6977 387.84 62.6097 385.249C53.72 378.454 49.3975 387.469 51.7441 395.744C47.2955 399.202 42.48 401.794 39.3919 406.735C34.7024 413.775 28.404 405.13 22.721 405.004C19.0176 405.252 15.1881 403.277 11.607 405.501C0.86376 407.721 3.33271 423.158 8.15197 430.075C8.76735 432.915 9.87949 435.506 12.5968 436.989C14.8174 438.594 15.0658 442.917 18.6468 441.931C20.9935 446.746 20.9935 446.746 25.316 446.376C25.5643 452.177 30.873 450.572 33.5903 453.167C33.961 456.129 39.0249 455.514 38.1575 458.476C29.8832 455.021 21.3642 452.177 15.0658 445.386C10.7433 441.682 5.30861 436.496 0 435.384C9.50878 450.943 27.9073 458.846 45.075 462.553C56.3113 464.774 72.4892 472.062 81.1342 460.948C83.2324 457.983 84.9599 455.143 81.6272 451.933C76.441 436.867 69.6495 446.25 82.3687 430.075C83.4808 428.592 84.9599 428.592 86.5651 429.705C88.2963 430.939 90.643 430.568 92.4928 431.554C100.645 434.272 105.831 423.651 101.386 416.985C109.041 417.479 111.14 416.244 112.993 408.711C113.857 404.511 110.276 400.808 109.164 396.856C112.5 393.152 114.969 385.619 120.404 385.864C122.624 385.123 125.097 383.888 127.44 383.395C138.802 379.321 144.73 367.217 155.966 362.524C170.661 359.191 189.063 354.498 196.226 339.803C199.065 334.246 199.188 323.751 191.288 322.513L191.41 322.761ZM67.4252 391.176C68.9081 389.571 71.0063 388.704 72.1184 386.483C76.0702 392.411 80.2704 398.339 84.5892 404.266C86.1944 405.994 88.541 406.609 89.4085 409.082C90.0239 409.946 90.0239 410.932 89.1601 411.673C86.0721 414.39 82.8617 408.956 80.1444 407.599C77.1824 404.14 61.8682 395.744 67.3029 391.176H67.4252ZM41.3678 459.71C40.7524 459.588 40.8748 458.724 41.4939 458.724C42.3576 458.724 42.1093 459.958 41.3678 459.71ZM75.3288 432.544C68.6597 439.336 63.4734 447.488 57.3011 454.65C56.1889 456.626 56.0629 456.5 53.8423 455.758C39.7626 450.572 27.2919 442.546 16.9193 431.681C24.4522 424.641 34.454 420.567 41.4939 413.156C44.2112 408.585 50.5059 408.34 53.4716 403.647C54.0907 402.906 54.8284 402.661 55.6959 402.661C63.4734 411.058 70.6356 419.947 79.7737 426.739C78.9099 429.456 77.0563 430.939 75.4512 432.422L75.3288 432.544ZM94.7171 424.392C85.4567 432.051 37.6644 382.283 61.8682 388.333C61.6236 389.445 60.5114 388.333 60.0147 388.952C60.8821 394.632 66.8098 398.954 70.3909 403.277C74.8358 406.609 91.136 424.27 94.7171 415.132C97.4344 417.972 99.2843 422.913 94.5948 424.392H94.7171ZM104.967 408.833C95.8292 418.342 60.7561 363.143 80.1444 366.354C80.3928 367.258 79.7329 368.863 78.1685 371.169C80.8858 378.209 96.8153 406.735 104.967 404.511C105.09 403.399 103.855 402.906 104.104 401.92C104.845 401.549 105.583 400.808 106.572 400.808C107.559 404.018 106.943 407.477 105.09 408.833H104.967ZM193.015 332.148C192.274 341.16 183.384 345.731 176.344 349.56C167.577 356.845 155.102 356.226 146.09 362.65C136.826 370.798 127.811 381.668 114.35 381.419C113.735 382.531 115.218 383.273 114.847 384.381C112.378 386.113 109.164 386.854 107.685 389.816C104.845 390.68 104.348 393.89 101.879 395.128C100.645 395.744 101.016 397.1 100.396 398.213C95.8292 395.866 93.9757 389.568 90.5169 385.619C87.9256 380.678 81.0081 375.121 85.7014 369.442C90.0239 364.997 90.2722 359.191 91.6291 353.757C93.7273 347.214 95.2101 340.296 96.4446 333.627C98.6689 308.93 76.6893 283.121 93.2342 260.771C106.45 259.41 97.0637 301.646 105.953 312.018C107.929 314.98 114.847 317.575 118.179 315.722C119.785 313.623 123.121 316.834 124.107 314.242C124.971 310.413 131.64 309.423 130.035 305.227C127.073 300.04 117.686 308.559 112.378 307.573C109.164 299.67 107.314 291.644 110.276 283.614C111.266 273.983 113.612 264.352 117.067 255.088C118.302 250.643 120.526 246.814 124.107 243.729C125.219 240.763 132.011 235.455 133.123 240.763C135.47 248.789 129.416 254.346 126.331 260.893C122.873 268.674 117.564 296.704 125.961 301.027C127.566 292.508 128.678 283.74 128.307 274.969C131.518 262.498 140.533 252.619 152.14 247.062C155.722 245.086 161.523 241.134 165.475 244.345C168.07 249.657 160.786 252.248 158.561 255.829C158.191 256.819 157.204 257.312 156.215 257.927C148.93 261.264 144.852 267.933 140.407 273.983C141.027 276.823 138.68 278.554 137.816 280.897C136.085 286.087 137.69 292.011 140.533 296.582C143.495 291.395 149.794 289.79 153.99 285.838C158.684 284.111 163.132 281.023 168.192 279.911C170.168 276.7 187.458 274.476 189.063 277.686C195.855 288.307 162.391 290.035 156.834 295.84C151.028 298.806 147.077 303.744 144.608 309.549C144.978 312.76 142.876 314.858 141.52 317.327C131.269 329.308 145.842 344.37 159.054 341.531C163.625 341.16 167.577 340.789 170.665 337.086C175.974 334.988 191.532 320.537 193.015 332.519V332.148Z" fill="#000001"/>
</g>
<path d="M611.15 407.721C604.114 397.471 589.541 407.228 581.515 412.17C580.774 412.785 579.91 413.156 578.55 412.663C582.872 403.399 568.796 374.628 557.434 377.59C554.468 378.702 553.853 378.702 552.248 375.985C547.432 368.207 542.984 360.304 538.416 352.4C528.785 329.675 512.607 310.784 501.123 289.049C491.736 273.119 486.305 255.088 476.177 239.651C469.386 226.932 445.798 205.568 452.715 236.07C456.296 254.472 467.532 270.65 471.733 288.307C465.186 290.654 457.16 290.035 451.11 292.752C450.491 294.977 448.393 295.347 446.787 296.211C438.761 300.904 434.684 304.978 434.684 314.736C435.054 323.132 443.329 328.318 446.91 335.11C448.641 339.062 452.344 339.432 455.803 340.422C456.912 345.482 460 350.053 465.064 351.536C468.152 352.522 470.001 354.376 471.24 356.967C474.695 365.119 483.833 368.452 487.291 376.604C491.243 387.347 504.952 388.333 514.583 390.806C520.882 394.016 522.239 401.178 525.942 406.365C526.439 406.858 526.809 407.721 526.313 408.463C525.204 410.316 525.82 412.537 526.19 414.268C527.918 421.675 532.24 434.769 541.134 435.384C542.861 435.384 543.851 436.248 543.973 438.101C536.689 441.931 530.513 447.362 526.19 454.524C521.252 460.578 521.745 466.379 528.289 470.95C532.24 475.273 537.182 474.038 542.246 473.297C556.941 474.283 571.758 469.097 582.995 459.836C574.598 461.812 566.45 467.369 557.682 466.505C558.049 465.145 559.288 464.652 560.396 464.774C563.239 465.022 565.338 463.662 567.436 462.305C569.412 461.193 571.881 461.812 572.993 459.217C576.7 454.772 584.477 456.748 585.838 449.708C593.122 449.093 592.752 445.141 596.211 441.189C602.012 439.584 602.88 432.174 607.695 428.963C611.521 424.889 617.449 411.058 610.906 407.721H611.15ZM557.434 383.644C566.45 376.975 585.838 408.463 570.524 408.34C565.582 410.561 548.418 384.381 557.434 383.644ZM483.71 364.997C482.105 360.304 477.412 357.586 475.684 352.645C478.524 351.781 481.241 351.288 483.462 349.434C484.329 354.376 483.462 359.562 483.71 364.871V364.997ZM526.19 393.026C522.361 390.064 517.916 387.099 512.978 386.235C511.247 385.987 510.138 384.507 509.271 383.395C505.816 379.692 501.245 377.59 497.419 374.38C483.462 368.823 490.624 350.795 489.267 339.184C489.019 332.519 484.203 329.553 477.534 330.665C473.46 333.134 478.031 336.593 481.364 336.1C488.526 336.1 478.402 347.088 474.695 346.102C473.215 346.595 471.484 347.214 469.757 345.979C454.198 346.35 460.863 336.47 466.42 327.948C467.162 325.972 469.138 325.108 470.869 324.118C473.089 319.551 482.354 321.898 481.857 315.848C476.426 314.98 470.62 319.673 465.557 321.775C459.384 324.737 459.013 331.036 456.174 336.344C450.984 335.481 449.379 327.825 448.763 323.503C452.837 316.463 461.36 314.609 467.288 309.301C470.743 307.818 474.45 306.832 477.412 304.363C473.46 299.299 469.015 303.251 465.434 305.842C458.15 309.92 447.158 312.389 444.441 321.034C444.318 321.775 443.699 322.02 443.084 322.513C431.966 309.549 457.901 296.83 468.152 293.371C474.45 290.776 483.091 296.211 488.404 290.902C489.886 287.692 483.34 287.692 481.364 288.43C477.041 289.42 477.412 279.788 473.953 277.564C470.498 272.256 470.62 264.723 466.669 259.41C465.186 254.224 463.336 249.038 460.989 244.345C461.36 241.012 458.272 238.914 457.901 235.826C456.541 232.86 454.32 230.513 456.912 227.181C463.829 227.181 466.298 236.196 469.879 241.012C471.114 244.222 474.572 246.447 474.821 250.15C474.821 252.619 478.276 252.619 478.524 255.088C479.636 261.386 482.598 266.943 485.067 272.626C486.057 278.306 489.267 282.75 492.726 287.073C502.85 300.411 510.509 315.599 520.511 329.06C531.132 345.979 540.144 363.885 549.901 381.297C548.789 384.878 547.925 388.211 549.408 391.67C549.901 392.782 549.037 393.645 548.667 394.758C542.984 395.992 539.773 401.549 534.587 403.77C532.24 400.066 529.278 396.485 526.561 392.782L526.19 393.026ZM529.527 415.254C530.635 412.785 533.352 413.034 535.206 412.044C539.899 406.858 546.813 404.14 550.643 397.968C552.741 398.954 552.492 401.423 554.346 402.29C547.306 408.834 540.022 414.142 531.747 418.465C530.39 417.479 530.02 416.366 529.527 415.38V415.254ZM534.465 422.913C533.23 422.294 532.982 420.937 532.24 420.07C539.773 415.132 549.16 412.044 553.975 403.525C559.039 406.242 555.951 410.439 551.999 412.044C546.32 415.873 540.763 420.07 534.465 423.036V422.913ZM543.354 426.987C542.246 428.47 541.011 427.48 539.899 427.603C537.182 427.973 537.182 427.729 535.947 425.134C543.48 420.196 553.605 418.22 558.298 409.453C566.943 412.17 554.717 418.094 552.492 421.675C549.408 423.406 545.579 424.022 543.354 427.11V426.987ZM585.59 438.594C582.872 439.955 582.131 443.536 578.921 444.151C576.945 444.522 575.091 445.512 573.486 446.869C569.905 450.201 564.845 450.201 561.015 453.167C555.336 447.239 552.492 439.336 547.306 432.915C551.136 431.432 553.853 428.593 557.063 426.987C559.039 426.617 561.137 426.246 562.001 424.022C567.929 420.441 564.596 413.527 574.105 417.356C577.067 423.529 580.155 430.817 585.712 435.262C587.072 436.003 587.072 437.731 585.59 438.594Z" fill="#000001"/>
<path d="M409.616 234.836C410.109 228.293 403.566 231.01 399.862 229.034C394.305 228.663 388.5 229.156 382.82 228.537C381.089 222.98 380.103 215.574 374.298 212.734C361.456 208.904 347.747 211.496 344.785 226.317C343.673 230.143 341.575 231.996 337.746 231.503C329.72 230.762 321.319 232.118 313.542 230.391C310.947 225.575 312.8 219.896 312.678 214.832C314.528 203.347 291.436 210.88 294.772 189.023C302.057 169.264 305.145 177.909 313.171 167.904C319.962 124.808 303.911 136.293 271.803 137.405C267.481 137.527 263.158 137.527 259.206 139.133C255.499 138.513 251.796 139.748 248.215 139.996C245.99 139.381 243.77 139.133 241.423 139.626C231.792 139.996 218.454 135.674 212.155 145.553C208.452 149.876 212.033 148.148 210.799 150.862C206.721 161.98 212.775 173.957 209.564 185.316C210.302 203.225 205.486 223.106 212.526 239.9C213.145 240.393 213.019 241.257 212.526 241.998C210.799 245.457 212.278 249.657 209.935 252.99C210.428 259.04 209.316 265.464 208.697 271.636C206.721 290.035 209.193 308.808 209.564 327.084C212.775 331.406 216.478 332.27 221.787 331.529C224.382 331.651 226.977 330.787 229.445 332.022C231.666 331.899 234.632 330.665 236.852 331.529C242.78 333.505 247.473 327.825 253.279 330.172C260.192 328.937 267.355 329.06 274.146 327.699C276.619 327.332 278.839 329.06 281.312 327.948C283.162 328.441 285.015 329.06 286.869 328.689C293.412 329.308 302.302 325.849 307.862 329.182C313.664 333.382 327.618 329.06 335.151 329.801C336.882 329.801 338.609 328.811 340.337 330.294C342.19 330.294 344.908 329.182 346.884 329.553C350.094 330.294 352.811 328.196 355.899 329.06C357.627 329.431 359.354 330.294 361.086 329.06C366.15 330.172 371.336 330.172 376.274 329.06C383.065 326.962 390.353 329.06 396.648 327.699C400.848 325.849 403.195 328.567 407.517 324.737C407.762 321.649 409.738 318.687 408.259 315.477C407.762 314.365 407.762 313.623 408.259 312.511C409.123 310.042 409.616 307.447 407.762 304.978C409.738 303.744 409.738 302.139 409.123 300.163C407.888 295.099 408.259 289.419 408.381 284.111C409.864 279.418 407.762 274.602 408.629 269.909C409 268.178 408.752 266.821 407.762 265.464C406.898 264.226 406.528 262.991 407.762 261.757C408.629 260.771 408.259 259.781 408.133 258.795C406.528 250.891 409.738 243.232 409.738 235.333L409.616 234.836ZM215.859 146.788C216.6 145.802 217.468 146.295 218.454 146.788C221.664 148.271 225.123 147.652 228.456 147.158C240.311 148.022 251.425 143.577 263.158 144.567C276.741 142.836 290.572 139.748 304.155 141.724C307.614 140.367 307.366 144.938 309.712 146.295C310.576 146.788 310.205 148.148 309.838 149.012C307.985 154.447 308.726 160.126 307.736 165.928C291.929 167.659 283.532 187.292 289.212 201.001C288.596 203.84 291.065 204.582 292.426 206.435C294.772 212.608 302.057 212.485 307.243 215.447C305.516 219.648 308.848 230.02 304.155 231.381C294.402 232.244 283.903 229.279 274.272 231.503C272.912 231.503 271.925 239.158 271.803 240.763C268.96 246.076 263.9 253.609 256.982 249.779C253.772 248.174 249.698 245.579 248.708 241.753C247.844 236.196 241.301 232.738 236.115 234.094C229.69 234.836 223.395 234.836 216.6 234.343C216.107 221.375 219.318 208.411 217.835 195.566C216.6 199.766 217.219 204.211 216.23 208.411C215.121 193.22 215.614 178.031 216.23 162.966C216.726 158.766 217.961 154.198 215.492 149.998C214.873 148.89 215.492 147.9 215.985 147.036L215.859 146.788ZM306.873 296.089C306.624 304.856 306.38 313.375 306.131 321.775C297.486 321.775 289.46 322.884 281.064 322.761C278.346 323.254 275.755 324.244 272.912 322.761C271.184 321.898 269.208 323.254 267.355 323.503C266.491 323.625 265.627 324.118 264.886 323.503C262.665 322.02 260.192 322.513 257.723 322.884C251.673 323.874 245.497 321.405 239.199 322.761C237.964 323.132 236.978 323.01 235.744 322.639C228.949 318.317 219.195 328.07 214.009 321.775C215.859 311.028 213.761 299.544 214.009 288.556C216.23 272.129 216.107 255.459 216.23 239.036C222.654 237.801 229.075 240.519 235.618 239.9C238.458 239.9 238.458 239.9 239.447 242.617C243.151 249.531 248.834 258.795 258.094 257.064C264.515 257.927 266.739 256.078 271.677 252.497C274.765 251.136 276 248.296 275.877 244.964C275.629 242.988 277.731 241.998 277.853 240.022C278.469 237.431 278.469 237.431 281.186 237.305C288.474 237.182 295.636 238.046 302.921 237.305C306.253 237.305 306.873 237.801 306.502 241.257C305.39 247.926 306.75 254.472 306.75 261.264C306.75 268.178 317.738 264.104 320.952 271.636C329.471 281.887 320.333 297.816 307.121 296.211L306.873 296.089ZM403.195 292.137C400.848 297.816 405.541 319.673 399.862 320.166C387.017 320.663 374.546 323.503 361.949 322.761C355.28 322.761 347.747 323.996 341.575 321.527C340.708 320.663 339.228 321.156 338.239 321.527C329.594 322.761 320.211 322.761 311.688 321.034C310.702 315.97 311.936 310.784 310.947 305.72C310.576 304.115 311.195 303.251 312.678 302.88C322.187 300.656 327.495 293.001 330.828 284.356C330.828 284.111 331.076 283.863 331.076 283.74C329.471 280.404 333.423 276.578 330.706 273.735C329.72 272.871 329.223 272.007 329.72 270.773C329.842 270.28 329.72 269.661 329.1 269.412C326.876 267.933 325.642 265.338 323.05 264.352C320.211 262.128 317.738 259.781 313.912 259.659C309.468 258.298 312.552 251.755 312.059 248.296C312.43 244.471 311.317 241.012 312.181 237.06C322.431 237.06 331.818 236.938 341.82 237.06C345.03 237.675 347.132 236.567 348.118 233.357C348.859 218.658 371.58 208.656 374.42 227.303C374.917 238.046 394.921 232.615 402.453 233.108C404.059 246.813 402.576 259.659 402.702 273.364C402.946 276.578 401.96 279.911 402.702 283.121C404.307 286.209 403.317 289.171 402.824 292.259L403.195 292.137Z" fill="#000001"/>
<path d="M208.945 100.604C208.451 98.9992 209.193 98.2578 210.057 97.268C214.995 91.711 216.229 85.661 213.638 78.4988C214.008 69.7315 204.87 64.0521 197.211 62.1986C195.362 61.8279 193.015 62.1986 191.532 60.5934C185.975 57.1346 178.691 57.0123 173.256 53.0605C181.16 45.0346 191.532 38.2394 195.236 27.2515C201.041 18.9772 201.289 -5.96807 185.975 1.31643C170.539 17.7427 158.19 37.7464 137.567 48.6157C126.331 56.6416 112.007 57.1346 98.7909 56.7639C93.727 57.383 92.8632 56.2709 94.8391 51.4553C95.9513 47.5035 100.274 42.9326 94.4684 40.3414C86.0718 36.2635 77.6751 32.0671 68.7855 28.979C69.1525 23.6704 71.3767 19.0995 69.6492 13.9132C67.0542 6.5027 57.3008 -1.52323 50.3833 5.63894C43.5918 11.0736 40.6298 19.4702 35.3175 26.1394C27.0432 36.5119 24.3259 49.8501 18.2758 60.9641C20.9932 48.6157 25.8087 35.7705 31.2434 24.1635C32.3555 21.8168 34.7021 18.8548 32.7262 16.3822C17.6605 31.8187 5.80507 93.813 13.2119 114.806C20.3741 130.117 38.8986 119.993 42.9727 107.396C44.4556 109.123 46.1868 109.372 47.9143 108.879C54.0867 110.113 60.1404 112.46 66.5612 110.606C71.8698 110.606 71.6251 103.322 75.8216 102.454C93.1116 103.692 96.1997 123.944 110.524 130.117C113.983 130.61 114.847 133.327 117.438 135.429C125.341 137.772 152.511 153.828 157.697 149.257C156.463 148.148 154.116 148.641 154.238 146.295C158.561 145.802 161.771 149.012 165.971 149.134C168.318 149.257 170.787 148.89 173.008 150.369C188.073 150.124 192.151 142.836 186.717 129.375C193.386 128.389 200.055 127.155 198.694 118.632C207.71 116.163 211.54 107.518 209.193 100.604H208.945ZM73.1043 84.9196C71.006 92.5748 68.1664 99.7407 65.449 107.147C50.1386 103.937 34.9468 99.863 19.5103 98.1355C18.8949 97.268 19.1396 96.5266 19.5103 95.9112C20.0071 95.1698 20.2517 94.4283 19.7587 93.5646C19.1396 90.4765 20.2517 87.2662 21.6123 84.4265C23.9589 74.054 25.6864 63.8038 28.7744 53.6759C29.1451 51.826 29.7605 50.0948 31.3657 48.4896C34.7021 44.1671 35.0728 37.624 38.8986 33.4239C40.3814 29.9688 42.235 26.7547 44.2109 23.5444C44.4556 23.0513 44.9486 22.8066 45.8161 22.6806C60.7558 30.0912 78.2942 33.7946 93.1116 42.1912C84.0959 55.2811 78.9096 70.3468 72.9819 85.0419L73.1043 84.9196ZM206.846 94.9214C202.153 91.9594 197.708 88.749 192.767 85.7833C184.989 81.4608 183.755 90.8473 190.668 93.5646C199.065 97.7648 215.984 110.113 197.337 113.075C190.791 115.051 183.258 104.308 177.701 111.592C182.023 116.656 191.287 116.163 193.386 123.696C186.594 126.043 179.554 125.179 172.763 123.696C172.022 123.325 170.787 123.696 170.168 124.808C172.763 128.141 178.442 127.4 179.677 131.6C180.418 133.946 183.755 134.932 183.506 137.898C184.122 142.962 181.901 142.591 178.442 143.826C176.715 142.343 174.861 141.724 173.256 143.826C151.399 133.946 124.6 135.181 105.582 118.51C96.815 111.592 90.5166 100.356 79.2803 96.8973C76.563 96.2819 76.3183 95.7889 77.4268 93.3162C78.2942 90.8473 78.1682 88.3783 80.2701 86.154C82.8614 82.4506 83.2321 77.016 85.8271 73.1902C86.1941 72.4488 86.8132 71.585 86.8132 70.8436C86.8132 67.8779 89.1598 65.902 89.4082 63.0623C89.7789 61.2088 92.6186 61.3348 94.0977 61.8279C157.82 80.9678 195.362 -30.0496 191.532 13.0495C190.298 15.2738 191.287 17.6167 190.668 19.9633C189.927 22.3099 188.941 24.6565 189.063 27.2515C187.951 29.7204 185.234 31.448 184.37 34.2876C183.629 36.3896 180.911 36.8826 180.541 39.2292C179.677 40.8344 177.456 41.5758 176.466 43.4294C173.627 46.3914 170.665 49.3534 167.577 51.826C166.216 51.9484 164.859 52.3191 164.611 53.8019C163.996 57.257 167.699 59.6036 169.797 61.5795C171.773 61.3348 173.008 63.0623 174.49 63.4331C177.208 64.7899 180.911 63.6814 183.135 65.5313C185.604 68.1263 185.604 68.1263 189.186 66.6434C192.396 68.99 195.732 70.7176 199.436 72.0781C208.451 75.6592 214.379 88.256 207.091 94.7991L206.846 94.9214Z" fill="#000001"/>
<path d="M127.81 345.608C126.453 343.136 127.565 340.174 124.726 338.691C122.379 336.344 119.907 333.256 115.958 334.124C115.339 339.803 119.413 344.496 119.784 350.053C121.145 355.61 118.798 362.153 122.502 366.847C127.81 365.364 128.8 358.572 128.552 354.005C130.157 351.039 128.922 348.2 127.81 345.482V345.608Z" fill="#000001"/>
<path d="M359.725 320.292C369.111 319.922 378.498 319.799 387.88 319.303C384.796 318.439 362.071 319.303 359.725 320.292Z" fill="#000001"/>
<path d="M343.918 321.405C346.513 322.268 348.737 321.034 351.084 320.786C348.737 320.786 346.265 320.166 343.918 321.405Z" fill="#000001"/>
<path d="M353.924 320.908C355.032 320.537 356.27 321.527 357.876 319.799C356.144 320.044 355.032 320.166 353.924 320.292C353.924 320.537 353.924 320.663 353.924 320.908Z" fill="#000001"/>
<path d="M53.3504 97.394C53.9657 99.3699 57.1761 100.604 60.1418 100.108C60.7572 96.8973 59.6488 94.0576 56.6831 91.3403C54.0918 92.8232 52.7313 95.4181 53.4727 97.394H53.3504Z" fill="#000001"/>
<path d="M39.2708 88.0076C35.6897 86.0317 34.7036 92.0817 35.1967 94.5507C37.914 102.084 44.2124 90.9696 39.2708 88.0076Z" fill="#000001"/>
<defs>
<linearGradient id="paint0_linear_376_694" x1="83.6035" y1="323.022" x2="199.548" y2="323.022" gradientUnits="userSpaceOnUse">
<stop stop-color="#D7E2FF"/>
<stop offset="1" stop-color="#E1F9FF"/>
</linearGradient>
<linearGradient id="paint1_linear_376_694" x1="18.8066" y1="432.069" x2="84.4568" y2="432.069" gradientUnits="userSpaceOnUse">
<stop stop-color="#D7E2FF"/>
<stop offset="1" stop-color="#E1F9FF"/>
</linearGradient>
<linearGradient id="paint2_linear_376_694" x1="65.9414" y1="403.145" x2="95.8283" y2="403.145" gradientUnits="userSpaceOnUse">
<stop stop-color="#D7E2FF"/>
<stop offset="1" stop-color="#E1F9FF"/>
</linearGradient>
<linearGradient id="paint3_linear_376_694" x1="553.604" y1="395.877" x2="575.773" y2="395.877" gradientUnits="userSpaceOnUse">
<stop stop-color="#D7E2FF"/>
<stop offset="1" stop-color="#E1F9FF"/>
</linearGradient>
<linearGradient id="paint4_linear_376_694" x1="368.988" y1="25.3189" x2="384.07" y2="25.3189" gradientUnits="userSpaceOnUse">
<stop stop-color="#D7E2FF"/>
<stop offset="1" stop-color="#E1F9FF"/>
</linearGradient>
<linearGradient id="paint5_linear_376_694" x1="367.822" y1="46.7009" x2="379.24" y2="46.7009" gradientUnits="userSpaceOnUse">
<stop stop-color="#D7E2FF"/>
<stop offset="1" stop-color="#E1F9FF"/>
</linearGradient>
<linearGradient id="paint6_linear_376_694" x1="416.904" y1="79.6533" x2="432.778" y2="79.6533" gradientUnits="userSpaceOnUse">
<stop stop-color="#D7E2FF"/>
<stop offset="1" stop-color="#E1F9FF"/>
</linearGradient>
<linearGradient id="paint7_linear_376_694" x1="399.662" y1="69.1754" x2="405.716" y2="69.1754" gradientUnits="userSpaceOnUse">
<stop stop-color="#D7E2FF"/>
<stop offset="1" stop-color="#E1F9FF"/>
</linearGradient>
<linearGradient id="paint8_linear_376_694" x1="20.3828" y1="71.0528" x2="97.7351" y2="71.0528" gradientUnits="userSpaceOnUse">
<stop stop-color="#D7E2FF"/>
<stop offset="1" stop-color="#E1F9FF"/>
</linearGradient>
<linearGradient id="paint9_linear_376_694" x1="510.752" y1="111.602" x2="597.109" y2="111.602" gradientUnits="userSpaceOnUse">
<stop stop-color="#D7E2FF"/>
<stop offset="1" stop-color="#E1F9FF"/>
</linearGradient>
<linearGradient id="paint10_linear_376_694" x1="523.863" y1="412.216" x2="559.531" y2="412.216" gradientUnits="userSpaceOnUse">
<stop stop-color="#D7E2FF"/>
<stop offset="1" stop-color="#E1F9FF"/>
</linearGradient>
<linearGradient id="paint11_linear_376_694" x1="533.277" y1="126.845" x2="568.804" y2="126.845" gradientUnits="userSpaceOnUse">
<stop stop-color="#D7E2FF"/>
<stop offset="1" stop-color="#E1F9FF"/>
</linearGradient>
<linearGradient id="paint12_linear_376_694" x1="504.164" y1="105.484" x2="511.793" y2="105.484" gradientUnits="userSpaceOnUse">
<stop stop-color="#D7E2FF"/>
<stop offset="1" stop-color="#E1F9FF"/>
</linearGradient>
<linearGradient id="paint13_linear_376_694" x1="554.223" y1="393.707" x2="555.579" y2="393.707" gradientUnits="userSpaceOnUse">
<stop stop-color="#D7E2FF"/>
<stop offset="1" stop-color="#E1F9FF"/>
</linearGradient>
</defs>
</svg>
