<svg width="97" height="26" viewBox="0 0 97 26" fill="none" xmlns="http://www.w3.org/2000/svg">
<path d="M95 1H1V25H95L82.0551 12.8286L95 1Z" stroke="#0DCAF0"/>
<path d="M13.3789 17V8.27273H16.4897C17.1687 8.27273 17.7312 8.39631 18.1772 8.64347C18.6233 8.89062 18.9571 9.22869 19.1787 9.65767C19.4002 10.0838 19.511 10.5639 19.511 11.098C19.511 11.6349 19.3988 12.1179 19.1744 12.5469C18.9528 12.973 18.6176 13.3111 18.1687 13.5611C17.7227 13.8082 17.1616 13.9318 16.4855 13.9318H14.3463V12.8153H16.3662C16.7951 12.8153 17.1431 12.7415 17.4102 12.5938C17.6772 12.4432 17.8733 12.2386 17.9983 11.9801C18.1233 11.7216 18.1858 11.4276 18.1858 11.098C18.1858 10.7685 18.1233 10.4759 17.9983 10.2202C17.8733 9.96449 17.6758 9.7642 17.4059 9.61932C17.1389 9.47443 16.7866 9.40199 16.3491 9.40199H14.6957V17H13.3789ZM21.3524 17V10.4545H22.584V11.4943H22.6522C22.7715 11.142 22.9817 10.8651 23.2828 10.6634C23.5868 10.4588 23.9306 10.3565 24.3141 10.3565C24.3936 10.3565 24.4874 10.3594 24.5953 10.3651C24.7061 10.3707 24.7928 10.3778 24.8553 10.3864V11.6051C24.8041 11.5909 24.7132 11.5753 24.5826 11.5582C24.4519 11.5384 24.3212 11.5284 24.1905 11.5284C23.8894 11.5284 23.6209 11.5923 23.3851 11.7202C23.1522 11.8452 22.9675 12.0199 22.8311 12.2443C22.6948 12.4659 22.6266 12.7187 22.6266 13.0028V17H21.3524ZM28.8806 17.1321C28.267 17.1321 27.7315 16.9915 27.2741 16.7102C26.8167 16.429 26.4616 16.0355 26.2088 15.5298C25.9559 15.0241 25.8295 14.4332 25.8295 13.7571C25.8295 13.0781 25.9559 12.4844 26.2088 11.9759C26.4616 11.4673 26.8167 11.0724 27.2741 10.7912C27.7315 10.5099 28.267 10.3693 28.8806 10.3693C29.4943 10.3693 30.0298 10.5099 30.4872 10.7912C30.9446 11.0724 31.2997 11.4673 31.5525 11.9759C31.8054 12.4844 31.9318 13.0781 31.9318 13.7571C31.9318 14.4332 31.8054 15.0241 31.5525 15.5298C31.2997 16.0355 30.9446 16.429 30.4872 16.7102C30.0298 16.9915 29.4943 17.1321 28.8806 17.1321ZM28.8849 16.0625C29.2826 16.0625 29.6122 15.9574 29.8735 15.7472C30.1349 15.5369 30.3281 15.2571 30.4531 14.9077C30.5809 14.5582 30.6448 14.1733 30.6448 13.7528C30.6448 13.3352 30.5809 12.9517 30.4531 12.6023C30.3281 12.25 30.1349 11.9673 29.8735 11.7543C29.6122 11.5412 29.2826 11.4347 28.8849 11.4347C28.4843 11.4347 28.1519 11.5412 27.8877 11.7543C27.6264 11.9673 27.4318 12.25 27.3039 12.6023C27.1789 12.9517 27.1164 13.3352 27.1164 13.7528C27.1164 14.1733 27.1789 14.5582 27.3039 14.9077C27.4318 15.2571 27.6264 15.5369 27.8877 15.7472C28.1519 15.9574 28.4843 16.0625 28.8849 16.0625ZM33.754 17V10.4545H34.977V11.5199H35.058C35.1943 11.1591 35.4174 10.8778 35.727 10.6761C36.0367 10.4716 36.4074 10.3693 36.8392 10.3693C37.2767 10.3693 37.6432 10.4716 37.9387 10.6761C38.237 10.8807 38.4571 11.1619 38.5992 11.5199H38.6674C38.8236 11.1705 39.0722 10.892 39.4131 10.6847C39.754 10.4744 40.1603 10.3693 40.6318 10.3693C41.2256 10.3693 41.71 10.5554 42.085 10.9276C42.4628 11.2997 42.6517 11.8608 42.6517 12.6108V17H41.3776V12.7301C41.3776 12.2869 41.2568 11.9659 41.0154 11.767C40.7739 11.5682 40.4855 11.4688 40.1503 11.4688C39.7355 11.4688 39.4131 11.5966 39.183 11.8523C38.9529 12.1051 38.8378 12.4304 38.8378 12.8281V17H37.5679V12.6491C37.5679 12.294 37.4571 12.0085 37.2355 11.7926C37.014 11.5767 36.7256 11.4688 36.3705 11.4688C36.129 11.4688 35.906 11.5327 35.7015 11.6605C35.4997 11.7855 35.3364 11.9602 35.2114 12.1847C35.0892 12.4091 35.0282 12.669 35.0282 12.9645V17H33.754ZM47.5166 17.1321C46.9029 17.1321 46.3674 16.9915 45.91 16.7102C45.4527 16.429 45.0975 16.0355 44.8447 15.5298C44.5919 15.0241 44.4654 14.4332 44.4654 13.7571C44.4654 13.0781 44.5919 12.4844 44.8447 11.9759C45.0975 11.4673 45.4527 11.0724 45.91 10.7912C46.3674 10.5099 46.9029 10.3693 47.5166 10.3693C48.1302 10.3693 48.6657 10.5099 49.1231 10.7912C49.5805 11.0724 49.9356 11.4673 50.1885 11.9759C50.4413 12.4844 50.5677 13.0781 50.5677 13.7571C50.5677 14.4332 50.4413 15.0241 50.1885 15.5298C49.9356 16.0355 49.5805 16.429 49.1231 16.7102C48.6657 16.9915 48.1302 17.1321 47.5166 17.1321ZM47.5208 16.0625C47.9186 16.0625 48.2481 15.9574 48.5095 15.7472C48.7708 15.5369 48.964 15.2571 49.089 14.9077C49.2169 14.5582 49.2808 14.1733 49.2808 13.7528C49.2808 13.3352 49.2169 12.9517 49.089 12.6023C48.964 12.25 48.7708 11.9673 48.5095 11.7543C48.2481 11.5412 47.9186 11.4347 47.5208 11.4347C47.1203 11.4347 46.7879 11.5412 46.5237 11.7543C46.2623 11.9673 46.0677 12.25 45.9399 12.6023C45.8149 12.9517 45.7524 13.3352 45.7524 13.7528C45.7524 14.1733 45.8149 14.5582 45.9399 14.9077C46.0677 15.2571 46.2623 15.5369 46.5237 15.7472C46.7879 15.9574 47.1203 16.0625 47.5208 16.0625ZM55.4453 10.4545V11.4773H51.8701V10.4545H55.4453ZM52.8289 8.88636H54.103V15.0781C54.103 15.3253 54.1399 15.5114 54.2138 15.6364C54.2877 15.7585 54.3828 15.8423 54.4993 15.8878C54.6186 15.9304 54.7479 15.9517 54.8871 15.9517C54.9894 15.9517 55.0789 15.9446 55.1556 15.9304C55.2323 15.9162 55.2919 15.9048 55.3345 15.8963L55.5647 16.9489C55.4908 16.9773 55.3857 17.0057 55.2493 17.0341C55.113 17.0653 54.9425 17.0824 54.738 17.0852C54.4027 17.0909 54.0902 17.0312 53.8005 16.9062C53.5107 16.7812 53.2763 16.5881 53.0973 16.3267C52.9184 16.0653 52.8289 15.7372 52.8289 15.3423V8.88636ZM60.0055 17.1321C59.3606 17.1321 58.8052 16.9943 58.3393 16.7188C57.8762 16.4403 57.5183 16.0497 57.2654 15.5469C57.0154 15.0412 56.8904 14.4489 56.8904 13.7699C56.8904 13.0994 57.0154 12.5085 57.2654 11.9972C57.5183 11.4858 57.8706 11.0866 58.3223 10.7997C58.7768 10.5128 59.3081 10.3693 59.916 10.3693C60.2853 10.3693 60.6433 10.4304 60.9899 10.5526C61.3365 10.6747 61.6475 10.8665 61.9231 11.1278C62.1987 11.3892 62.416 11.7287 62.5751 12.1463C62.7342 12.5611 62.8137 13.0653 62.8137 13.6591V14.1108L57.6106 14.1108V13.1563H61.5652C61.5652 12.821 61.497 12.5241 61.3606 12.2656C61.2242 12.0043 61.0325 11.7983 60.7853 11.6477C60.541 11.4972 60.2541 11.4219 59.9245 11.4219C59.5666 11.4219 59.2541 11.5099 58.987 11.6861C58.7228 11.8594 58.5183 12.0866 58.3734 12.3679C58.2314 12.6463 58.1603 12.9489 58.1603 13.2756V14.0213C58.1603 14.4588 58.237 14.831 58.3904 15.1378C58.5467 15.4446 58.764 15.679 59.0424 15.8409C59.3208 16 59.6461 16.0795 60.0183 16.0795C60.2598 16.0795 60.4799 16.0455 60.6788 15.9773C60.8777 15.9062 61.0495 15.8011 61.1944 15.6619C61.3393 15.5227 61.4501 15.3509 61.5268 15.1463L62.7328 15.3636C62.6362 15.7187 62.4629 16.0298 62.2129 16.2969C61.9657 16.5611 61.6546 16.767 61.2796 16.9148C60.9075 17.0597 60.4828 17.1321 60.0055 17.1321ZM67.0777 17.1278C66.5493 17.1278 66.0777 16.9929 65.663 16.723C65.251 16.4503 64.9272 16.0625 64.6914 15.5597C64.4584 15.054 64.3419 14.4474 64.3419 13.7401C64.3419 13.0327 64.4598 12.4276 64.6956 11.9247C64.9343 11.4219 65.261 11.0369 65.6757 10.7699C66.0905 10.5028 66.5607 10.3693 67.0863 10.3693C67.4925 10.3693 67.8192 10.4375 68.0664 10.5739C68.3164 10.7074 68.5095 10.8636 68.6459 11.0426C68.7851 11.2216 68.8931 11.3793 68.9698 11.5156H69.0465V8.27273H70.3206V17H69.0763V15.9815H68.9698C68.8931 16.1207 68.7823 16.2798 68.6374 16.4588C68.4953 16.6378 68.2993 16.794 68.0493 16.9276C67.7993 17.0611 67.4755 17.1278 67.0777 17.1278ZM67.359 16.0412C67.7255 16.0412 68.0351 15.9446 68.288 15.7514C68.5436 15.5554 68.7368 15.2841 68.8675 14.9375C69.001 14.5909 69.0678 14.1875 69.0678 13.7273C69.0678 13.2727 69.0024 12.875 68.8718 12.5341C68.7411 12.1932 68.5493 11.9276 68.2965 11.7372C68.0436 11.5469 67.7311 11.4517 67.359 11.4517C66.9755 11.4517 66.6559 11.5511 66.4002 11.75C66.1445 11.9489 65.9513 12.2202 65.8206 12.5639C65.6928 12.9077 65.6289 13.2955 65.6289 13.7273C65.6289 14.1648 65.6942 14.5582 65.8249 14.9077C65.9556 15.2571 66.1488 15.5341 66.4044 15.7386C66.663 15.9403 66.9811 16.0412 67.359 16.0412Z" fill="#EFEFEF"/>
</svg>
