<svg width="49" height="48" viewBox="0 0 49 48" fill="none" xmlns="http://www.w3.org/2000/svg">
<path fill-rule="evenodd" clip-rule="evenodd" d="M22.5 34C22.5 36.1217 21.6571 38.1566 20.1569 39.6569C18.6566 41.1571 16.6217 42 14.5 42C12.3783 42 10.3434 41.1571 8.84315 39.6569C7.34285 38.1566 6.5 36.1217 6.5 34C6.5 29.58 14.5 6 14.5 6H18.5L14.5 26C16.6217 26 18.6566 26.8429 20.1569 28.3431C21.6571 29.8434 22.5 31.8783 22.5 34ZM42.5 34C42.5 36.1217 41.6571 38.1566 40.1569 39.6569C38.6566 41.1571 36.6217 42 34.5 42C32.3783 42 30.3434 41.1571 28.8431 39.6569C27.3429 38.1566 26.5 36.1217 26.5 34C26.5 29.58 34.5 6 34.5 6H38.5L34.5 26C36.6217 26 38.6566 26.8429 40.1569 28.3431C41.6571 29.8434 42.5 31.8783 42.5 34Z" fill="#DADDE6"/>
</svg>
