<svg width="28" height="28" viewBox="0 0 28 28" fill="none" xmlns="http://www.w3.org/2000/svg">
<path d="M1.50781 19.0974C1.50781 18.9759 1.60499 18.9354 1.66167 18.8706C2.43908 18.0932 3.22458 17.3239 3.98579 16.5303C4.18014 16.336 4.26922 16.4008 4.39878 16.5708C4.56074 16.7814 4.58504 17.0324 4.61743 17.2834C4.74699 18.4496 5.41103 19.2512 6.47186 19.5104C6.56904 19.5347 6.66621 19.5509 6.77148 19.559C7.22497 19.5914 7.52459 19.8019 7.73514 20.2149C8.2858 21.2757 9.4681 21.7697 10.6099 21.3891C11.1363 21.2191 11.5736 21.2757 11.9623 21.6806C12.0918 21.8102 12.27 21.9074 12.432 22.0046C12.5291 22.0612 12.5453 22.1098 12.4562 22.1827C12.432 22.1989 12.4158 22.2232 12.3915 22.2475C11.1363 23.5027 9.8811 24.7579 8.62592 26.013C8.60162 26.0373 8.56113 26.0616 8.52874 26.094C8.39917 26.0292 8.43156 25.8997 8.40727 25.8025C8.02667 24.1991 7.65416 22.5876 7.29785 20.9761C7.20877 20.5631 7.00632 20.3688 6.59333 20.2797C4.92515 19.9153 3.25697 19.5185 1.58879 19.1379C1.58069 19.1217 1.5483 19.1136 1.50781 19.0974Z" fill="#0DCAF0"/>
<path d="M14.5586 22.0855C14.5748 22.0693 14.5829 22.0612 14.591 22.0531C15.1983 21.5511 15.8138 21.3891 16.6398 21.5916C17.652 21.8426 18.5995 21.2595 19.0773 20.3202C19.3121 19.8586 19.6441 19.6319 20.1624 19.5833C21.5066 19.4537 22.2678 18.7006 22.4784 17.3644C22.5027 17.1944 22.527 17.0243 22.6242 16.8785C22.8671 16.4979 23.0453 16.4736 23.353 16.7814C24.0413 17.4697 24.7215 18.1499 25.4099 18.8383C25.4827 18.9111 25.5475 18.984 25.6528 19.0974C25.0616 19.2351 24.511 19.3646 23.9603 19.4942C22.7861 19.7614 21.6038 20.0448 20.4215 20.2959C20.0328 20.3769 19.879 20.5955 19.798 20.9599C19.4174 22.6686 19.0206 24.3773 18.6238 26.0859C18.4051 25.9806 15.1416 22.7739 14.5586 22.0855Z" fill="#0DCAF0"/>
<path d="M0 20.4823C0.186253 20.3122 0.372506 20.1503 0.550661 19.9802C0.639738 19.8992 0.71262 19.9397 0.801698 19.964C2.58325 20.377 4.3729 20.79 6.15445 21.1949C6.30831 21.2273 6.36499 21.3083 6.39738 21.454C6.79418 23.2032 7.19908 24.9443 7.61208 26.6934C7.66876 26.9202 7.62018 27.0659 7.45012 27.2117C7.32055 27.3251 7.23147 27.4708 7.1181 27.6085C7.08571 27.5923 7.05332 27.5761 7.02903 27.568C6.91565 27.1064 6.80228 26.6448 6.69701 26.1751C6.40548 24.9119 6.10586 23.6486 5.83053 22.3772C5.74955 21.9966 5.5309 21.8265 5.1665 21.7456C3.45783 21.365 1.74916 20.9682 0.0485878 20.5714C0.0404898 20.539 0.0242939 20.5066 0 20.4823Z" fill="#0DCAF0"/>
<path d="M27.0555 20.5634C25.7922 20.855 24.529 21.1465 23.2657 21.438C22.7636 21.5514 22.2696 21.681 21.7675 21.7862C21.4922 21.8429 21.3546 21.9968 21.2979 22.264C20.893 24.0213 20.4881 25.7704 20.0751 27.5277C19.6135 27.3414 19.4272 26.9932 19.5325 26.5235C19.9212 24.8392 20.3099 23.1467 20.6905 21.4623C20.7229 21.3004 20.7877 21.2194 20.9497 21.187C22.6988 20.7902 24.4399 20.3853 26.189 19.9723C26.4158 19.9156 26.5615 19.9642 26.7073 20.1343C26.8207 20.2638 26.9664 20.3529 27.1041 20.4663C27.0879 20.4987 27.0717 20.5311 27.0555 20.5634Z" fill="#0DCAF0"/>
<path d="M23.883 9.73615C23.381 9.1369 23.2514 8.48097 23.4943 7.73596C23.7292 7.00714 23.4458 6.31882 22.7574 5.9787C21.9476 5.5738 21.5508 4.92597 21.5022 4.02709C21.4699 3.31447 20.9192 2.76381 20.2066 2.69903C19.4535 2.63425 18.8947 2.27794 18.5465 1.60581C18.1659 0.868891 17.4938 0.585463 16.7245 0.852695C15.9066 1.13612 15.202 0.974165 14.5623 0.407308C13.9792 -0.119059 13.218 -0.135255 12.6026 0.35872C12.0195 0.828402 11.3879 0.949871 10.6753 0.723128C9.89788 0.472092 9.22575 0.75552 8.85324 1.49243C8.46454 2.26174 7.841 2.64234 6.99881 2.69903C6.19711 2.74762 5.67884 3.24969 5.59786 4.05139C5.52498 4.76401 5.18487 5.29847 4.53703 5.63859C3.74343 6.05968 3.49239 6.68322 3.76772 7.53351C4.01876 8.31091 3.873 8.99924 3.33043 9.61468C2.75548 10.2625 2.73928 10.9589 3.28185 11.6311C3.57337 11.9874 3.74343 12.3842 3.73533 12.9106C3.75963 13.0968 3.68674 13.3316 3.61386 13.5665C3.38712 14.3034 3.67055 14.9836 4.35078 15.3237C5.16057 15.7286 5.56547 16.3765 5.60596 17.2753C5.63835 17.9637 6.18901 18.5386 6.86924 18.5953C7.64665 18.6601 8.2135 19.0245 8.56981 19.7209C8.93422 20.4174 9.61445 20.7089 10.3514 20.4578C11.1855 20.1663 11.9062 20.3364 12.5621 20.9194C13.1209 21.4215 13.8902 21.4458 14.4732 20.968C15.0806 20.474 15.7365 20.3607 16.4815 20.5955C17.1779 20.8223 17.8744 20.5388 18.1983 19.8829C18.6113 19.0407 19.2672 18.6358 20.1904 18.5953C20.8625 18.5629 21.4375 18.0123 21.4861 17.3401C21.5508 16.5465 21.9233 15.9797 22.636 15.6153C23.3162 15.2671 23.6077 14.5706 23.3567 13.8499C23.0652 12.9996 23.2271 12.2708 23.8264 11.6149C24.3365 11.0642 24.3608 10.3111 23.883 9.73615ZM13.5824 19.3727C8.71557 19.3727 4.82856 15.4776 4.82856 10.5945C4.82856 5.80055 8.75606 1.92163 13.5905 1.92163C18.4007 1.92972 22.2797 5.83294 22.2797 10.6674C22.2797 15.4695 18.3764 19.3727 13.5824 19.3727Z" fill="#0DCAF0"/>
<path d="M13.5709 2.89308C9.27901 2.90118 5.78879 6.39949 5.79689 10.6833C5.80499 14.9185 9.3033 18.4088 13.5385 18.4088C17.8143 18.4088 21.3045 14.9266 21.3045 10.6509C21.3126 6.3914 17.8062 2.88498 13.5709 2.89308ZM19.0937 9.66297C18.3163 10.3027 17.547 10.9586 16.7615 11.5903C16.5753 11.736 16.5348 11.8737 16.5915 12.1005C16.8668 13.1532 17.1178 14.2059 17.3932 15.2587C17.4579 15.5016 17.4498 15.7283 17.2312 15.8822C17.0045 16.0523 16.7777 15.9794 16.5672 15.8255C15.6359 15.1534 14.6965 14.4894 13.7653 13.8172C13.6033 13.7039 13.5061 13.7039 13.3523 13.8172C12.4372 14.4813 11.514 15.1291 10.599 15.7931C10.3722 15.9551 10.1455 16.0766 9.88636 15.8903C9.64342 15.7121 9.66771 15.4692 9.74059 15.2101C10.0078 14.1735 10.2508 13.137 10.5261 12.1086C10.5828 11.8818 10.5504 11.7522 10.3641 11.5984C9.57863 10.9667 8.80933 10.3108 8.03192 9.67107C7.82948 9.50101 7.69181 9.31476 7.78089 9.04753C7.87806 8.756 8.11291 8.70741 8.38824 8.71551C8.90651 8.72361 9.41668 8.71551 9.93494 8.71551C10.4613 8.71551 10.9877 8.70741 11.5059 8.72361C11.7003 8.73171 11.7813 8.66692 11.8461 8.48067C12.2348 7.28217 12.6397 6.09177 13.0365 4.90137C13.0851 4.74751 13.1255 4.58555 13.2551 4.47218C13.5385 4.22924 13.9272 4.35071 14.0649 4.74751C14.4131 5.76785 14.7451 6.7882 15.0933 7.80854C15.1905 8.10007 15.1986 8.49686 15.4254 8.66692C15.6521 8.83698 16.0246 8.71551 16.3404 8.71551C17.1583 8.72361 17.9762 8.72361 18.7941 8.71551C19.0613 8.71551 19.28 8.7722 19.3772 9.04753C19.4338 9.30666 19.2962 9.49291 19.0937 9.66297Z" fill="#0DCAF0"/>
<path d="M17.5395 9.67945C16.924 10.1896 16.3896 10.6593 15.8227 11.0966C15.5231 11.3314 15.4421 11.5744 15.5474 11.9388C15.7417 12.619 15.8875 13.3073 16.0656 13.9876C16.0899 14.0766 16.1223 14.1576 16.0899 14.271C15.3935 13.777 14.7133 13.283 14.025 12.7972C13.612 12.5056 13.5148 12.5056 13.1099 12.7972C12.5106 13.2264 11.9114 13.6555 11.3121 14.0847C11.2312 14.1414 11.1583 14.2143 11.0206 14.2305C11.0368 13.9066 11.1502 13.6151 11.2231 13.3154C11.3364 12.8215 11.4579 12.3356 11.5875 11.8497C11.6684 11.5582 11.5875 11.3476 11.3607 11.1614C10.8425 10.7403 10.3323 10.3111 9.82212 9.8819C9.76543 9.83331 9.68445 9.80092 9.66016 9.67945C10.4052 9.67945 11.134 9.67945 11.8628 9.67945C12.4054 9.67945 12.4782 9.63086 12.6483 9.12069C12.9398 8.24611 13.2314 7.37153 13.531 6.47266C13.6444 6.55364 13.6524 6.65891 13.6767 6.74799C13.944 7.54968 14.2112 8.35138 14.4784 9.15308C14.6323 9.60656 14.7214 9.67135 15.1992 9.67135C15.8551 9.67135 16.511 9.67135 17.167 9.67135C17.256 9.67945 17.3532 9.67945 17.5395 9.67945Z" fill="#0DCAF0"/>
</svg>
