<svg width="360" height="20" viewBox="0 0 360 20" fill="none" xmlns="http://www.w3.org/2000/svg">
<line y1="9.5" x2="159.5" y2="9.5" stroke="#191D23"/>
<path d="M180.04 9.63636C180.04 10.5682 179.869 11.3693 179.528 12.0398C179.188 12.7074 178.72 13.2216 178.126 13.5824C177.536 13.9403 176.864 14.1193 176.111 14.1193C175.355 14.1193 174.68 13.9403 174.087 13.5824C173.496 13.2216 173.03 12.706 172.689 12.0355C172.348 11.3651 172.178 10.5653 172.178 9.63636C172.178 8.70455 172.348 7.90483 172.689 7.23722C173.03 6.56676 173.496 6.05256 174.087 5.6946C174.68 5.33381 175.355 5.15341 176.111 5.15341C176.864 5.15341 177.536 5.33381 178.126 5.6946C178.72 6.05256 179.188 6.56676 179.528 7.23722C179.869 7.90483 180.04 8.70455 180.04 9.63636ZM178.736 9.63636C178.736 8.92614 178.621 8.32812 178.391 7.84233C178.163 7.35369 177.851 6.98438 177.453 6.73438C177.058 6.48153 176.611 6.35511 176.111 6.35511C175.608 6.35511 175.159 6.48153 174.764 6.73438C174.369 6.98438 174.057 7.35369 173.827 7.84233C173.599 8.32812 173.486 8.92614 173.486 9.63636C173.486 10.3466 173.599 10.946 173.827 11.4347C174.057 11.9205 174.369 12.2898 174.764 12.5426C175.159 12.7926 175.608 12.9176 176.111 12.9176C176.611 12.9176 177.058 12.7926 177.453 12.5426C177.851 12.2898 178.163 11.9205 178.391 11.4347C178.621 10.946 178.736 10.3466 178.736 9.63636ZM181.681 14V5.27273H184.792C185.468 5.27273 186.029 5.3892 186.475 5.62216C186.924 5.85511 187.26 6.17756 187.481 6.58949C187.703 6.99858 187.814 7.47159 187.814 8.00852C187.814 8.54261 187.701 9.01278 187.477 9.41903C187.255 9.82244 186.92 10.1364 186.471 10.3608C186.025 10.5852 185.464 10.6974 184.788 10.6974H182.431V9.56392H184.669C185.095 9.56392 185.441 9.50284 185.708 9.38068C185.978 9.25852 186.176 9.08097 186.301 8.84801C186.426 8.61506 186.488 8.33523 186.488 8.00852C186.488 7.67898 186.424 7.39347 186.297 7.15199C186.172 6.91051 185.974 6.72585 185.704 6.59801C185.437 6.46733 185.086 6.40199 184.652 6.40199H182.998V14H181.681ZM185.99 10.0625L188.146 14H186.646L184.532 10.0625H185.99Z" fill="#191D23"/>
<line x1="200.5" y1="9.5" x2="360" y2="9.5" stroke="#191D23"/>
</svg>
