<svg width="26" height="26" viewBox="0 0 26 26" fill="none" xmlns="http://www.w3.org/2000/svg">
<mask id="mask0_853_1909" style="mask-type:luminance" maskUnits="userSpaceOnUse" x="0" y="0" width="26" height="26">
<path d="M25.4976 0H0V25.4976H25.4976V0Z" fill="white"/>
</mask>
<g mask="url(#mask0_853_1909)">
<path d="M25.4927 8.44715C25.3139 8.91183 25.0637 9.31693 24.5752 9.51948C24.5156 9.54331 24.5037 9.60288 24.4918 9.66245C23.9795 11.7595 23.4552 13.8445 22.9429 15.9296C22.8238 16.3943 22.5735 16.5849 22.085 16.5849C15.9013 16.5968 9.71752 16.6564 3.53376 16.6326C3.03334 16.6326 2.78313 16.442 2.66398 15.9654C2.16356 13.9399 1.65122 11.9143 1.16272 9.88884C1.11506 9.67437 1.04357 9.54331 0.829106 9.43607C0.209538 9.11438 -0.0645014 8.39949 0.126135 7.74418C0.316771 7.07695 0.948253 6.61228 1.60356 6.63611C2.30654 6.67185 2.91419 7.16036 3.03334 7.82758C3.12865 8.328 3.02142 8.78076 2.65206 9.15012C2.54483 9.25735 2.54483 9.31693 2.65206 9.42416C3.27163 10.0318 3.86737 10.6633 4.49885 11.2709C5.65458 12.4028 7.45371 12.3075 8.45455 11.0207C9.52688 9.65054 10.5635 8.23268 11.6239 6.85057C11.7192 6.71951 11.6596 6.65994 11.5881 6.5527C10.9686 5.73058 11.3498 4.55102 12.3268 4.22932C12.9345 4.02677 13.6136 4.25315 14.0068 4.7774C14.3762 5.27782 14.3881 6.00462 14.0068 6.51696C13.8996 6.65994 13.9115 6.73142 14.0068 6.8744C15.0672 8.26843 16.0919 9.6982 17.1762 11.0803C18.1174 12.2718 19.8808 12.3909 20.9889 11.3544C21.6561 10.7348 22.2995 10.0556 22.9429 9.41224C23.0382 9.31693 23.0263 9.25735 22.9429 9.17395C22.5021 8.70927 22.3948 8.1612 22.6212 7.56546C22.8595 6.96972 23.3361 6.67185 23.9676 6.62419C24.5991 6.57653 25.2424 7.05312 25.445 7.69652C25.4569 7.74418 25.4331 7.81567 25.5046 7.85141C25.4927 8.05396 25.4927 8.25651 25.4927 8.44715Z" fill="#0DCAF0"/>
<path d="M12.8169 18.146C15.8314 18.146 18.8458 18.146 21.8602 18.146C22.5036 18.146 22.7538 18.4081 22.7538 19.0515C22.7538 19.54 22.7538 20.0285 22.7538 20.517C22.7538 20.9936 22.4798 21.2677 22.0032 21.2915C21.9436 21.2915 21.8841 21.2915 21.8245 21.2915C15.8195 21.2915 9.80251 21.2915 3.79747 21.2915C3.70215 21.2915 3.59492 21.2915 3.4996 21.2796C3.15407 21.2438 2.89194 20.9936 2.88003 20.6481C2.86812 20.0404 2.86812 19.4209 2.88003 18.8132C2.89194 18.4439 3.18981 18.1698 3.55917 18.1579C3.77364 18.146 3.9881 18.1579 4.20257 18.1579C7.07403 18.146 9.94548 18.146 12.8169 18.146Z" fill="#0DCAF0"/>
</g>
</svg>
