<svg width="121" height="121" viewBox="0 0 121 121" fill="none" xmlns="http://www.w3.org/2000/svg">
<circle cx="60.4316" cy="60.4316" r="60.4316" fill="#EFEFEF"/>
<g clip-path="url(#clip0_1354_4850)">
<path d="M79.9972 51.3017C79.9972 52.2241 79.6307 53.1088 78.9785 53.7611C78.3262 54.4133 77.4415 54.7798 76.5191 54.7798H45.2164C44.2939 54.7798 43.4093 54.4133 42.757 53.7611C42.1047 53.1088 41.7383 52.2241 41.7383 51.3017V32.1723C41.7383 31.2498 42.1047 30.3651 42.757 29.7129C43.4093 29.0606 44.2939 28.6942 45.2164 28.6942H52.1725L55.6506 23.4771H66.0848L69.5629 28.6942H76.5191C77.4415 28.6942 78.3262 29.0606 78.9785 29.7129C79.6307 30.3651 79.9972 31.2498 79.9972 32.1723V51.3017Z" stroke="#191D23" stroke-width="4" stroke-linecap="round" stroke-linejoin="round"/>
<path d="M60.8677 47.8236C64.7095 47.8236 67.8239 44.7092 67.8239 40.8674C67.8239 37.0257 64.7095 33.9113 60.8677 33.9113C57.0259 33.9113 53.9116 37.0257 53.9116 40.8674C53.9116 44.7092 57.0259 47.8236 60.8677 47.8236Z" stroke="#191D23" stroke-width="4" stroke-linecap="round" stroke-linejoin="round"/>
</g>
<path d="M22.6662 68.8182H24.2074V75.5149C24.2074 76.2275 24.04 76.8589 23.7053 77.4091C23.3705 77.956 22.8999 78.3868 22.2933 78.7017C21.6868 79.0133 20.9759 79.169 20.1605 79.169C19.3485 79.169 18.6392 79.0133 18.0327 78.7017C17.4261 78.3868 16.9555 77.956 16.6207 77.4091C16.286 76.8589 16.1186 76.2275 16.1186 75.5149V68.8182H17.6548V75.3906C17.6548 75.8513 17.7559 76.2607 17.9581 76.6186C18.1636 76.9766 18.4536 77.2583 18.8281 77.4638C19.2027 77.666 19.6468 77.767 20.1605 77.767C20.6776 77.767 21.1233 77.666 21.4979 77.4638C21.8757 77.2583 22.1641 76.9766 22.3629 76.6186C22.5651 76.2607 22.6662 75.8513 22.6662 75.3906V68.8182ZM26.3216 81.8636V71.3636H27.7733V72.6016H27.8975C27.9837 72.4425 28.108 72.2585 28.2704 72.0497C28.4328 71.8409 28.6582 71.6586 28.9466 71.5028C29.2349 71.3438 29.6161 71.2642 30.09 71.2642C30.7065 71.2642 31.2567 71.42 31.7406 71.7315C32.2245 72.0431 32.604 72.4922 32.8791 73.0788C33.1575 73.6655 33.2967 74.3714 33.2967 75.1967C33.2967 76.022 33.1592 76.7296 32.8841 77.3196C32.609 77.9062 32.2311 78.3587 31.7505 78.6768C31.2699 78.9917 30.7214 79.1491 30.1049 79.1491C29.6409 79.1491 29.2614 79.0713 28.9664 78.9155C28.6748 78.7597 28.4461 78.5774 28.2804 78.3686C28.1146 78.1598 27.987 77.9742 27.8975 77.8118H27.8081V81.8636H26.3216ZM27.7782 75.1818C27.7782 75.7187 27.8561 76.1894 28.0119 76.5938C28.1677 76.9981 28.3931 77.3146 28.688 77.5433C28.983 77.7687 29.3443 77.8814 29.7718 77.8814C30.216 77.8814 30.5872 77.7637 30.8855 77.5284C31.1838 77.2898 31.4092 76.9666 31.5616 76.5589C31.7174 76.1513 31.7953 75.6922 31.7953 75.1818C31.7953 74.678 31.719 74.2256 31.5666 73.8246C31.4174 73.4235 31.1921 73.107 30.8904 72.875C30.5922 72.643 30.2193 72.527 29.7718 72.527C29.341 72.527 28.9764 72.638 28.6781 72.8601C28.3831 73.0821 28.1594 73.392 28.0069 73.7898C27.8545 74.1875 27.7782 74.6515 27.7782 75.1818ZM36.4487 68.8182V79H34.9622V68.8182H36.4487ZM41.6651 79.1541C40.9492 79.1541 40.3245 78.9901 39.7908 78.6619C39.2572 78.3338 38.8429 77.8748 38.5479 77.2848C38.253 76.6948 38.1055 76.0054 38.1055 75.2166C38.1055 74.4245 38.253 73.7318 38.5479 73.1385C38.8429 72.5452 39.2572 72.0845 39.7908 71.7564C40.3245 71.4283 40.9492 71.2642 41.6651 71.2642C42.381 71.2642 43.0058 71.4283 43.5394 71.7564C44.073 72.0845 44.4873 72.5452 44.7823 73.1385C45.0773 73.7318 45.2248 74.4245 45.2248 75.2166C45.2248 76.0054 45.0773 76.6948 44.7823 77.2848C44.4873 77.8748 44.073 78.3338 43.5394 78.6619C43.0058 78.9901 42.381 79.1541 41.6651 79.1541ZM41.6701 77.9062C42.1341 77.9062 42.5186 77.7836 42.8235 77.5384C43.1284 77.2931 43.3538 76.9666 43.4996 76.5589C43.6488 76.1513 43.7234 75.7022 43.7234 75.2116C43.7234 74.7244 43.6488 74.277 43.4996 73.8693C43.3538 73.4583 43.1284 73.1286 42.8235 72.88C42.5186 72.6314 42.1341 72.5071 41.6701 72.5071C41.2028 72.5071 40.815 72.6314 40.5067 72.88C40.2018 73.1286 39.9748 73.4583 39.8256 73.8693C39.6798 74.277 39.6069 74.7244 39.6069 75.2116C39.6069 75.7022 39.6798 76.1513 39.8256 76.5589C39.9748 76.9666 40.2018 77.2931 40.5067 77.5384C40.815 77.7836 41.2028 77.9062 41.6701 77.9062ZM49.1064 79.169C48.6225 79.169 48.185 79.0795 47.7939 78.9006C47.4028 78.7183 47.0929 78.4548 46.8642 78.1101C46.6388 77.7654 46.5261 77.3428 46.5261 76.8423C46.5261 76.4115 46.609 76.0568 46.7747 75.7784C46.9404 75.5 47.1641 75.2796 47.4458 75.1172C47.7276 74.9548 48.0424 74.8321 48.3904 74.7493C48.7385 74.6664 49.0931 74.6035 49.4544 74.5604C49.9118 74.5073 50.283 74.4643 50.568 74.4311C50.853 74.3946 51.0602 74.3366 51.1895 74.2571C51.3187 74.1776 51.3833 74.0483 51.3833 73.8693V73.8345C51.3833 73.4003 51.2607 73.0639 51.0154 72.8253C50.7735 72.5866 50.4122 72.4673 49.9316 72.4673C49.4312 72.4673 49.0368 72.5784 48.7484 72.8004C48.4634 73.0192 48.2662 73.2628 48.1568 73.5312L46.7598 73.2131C46.9255 72.7491 47.1674 72.3745 47.4856 72.0895C47.8071 71.8011 48.1767 71.5923 48.5943 71.4631C49.0119 71.3305 49.4511 71.2642 49.9118 71.2642C50.2167 71.2642 50.5398 71.3007 50.8812 71.3736C51.2259 71.4432 51.5474 71.5724 51.8457 71.7614C52.1473 71.9503 52.3942 72.2204 52.5865 72.5717C52.7787 72.9197 52.8748 73.3722 52.8748 73.929V79H51.4231V77.956H51.3635C51.2673 78.1482 51.1232 78.3371 50.9309 78.5227C50.7387 78.7083 50.4918 78.8625 50.1902 78.9851C49.8886 79.1077 49.5273 79.169 49.1064 79.169ZM49.4295 77.9759C49.8405 77.9759 50.1918 77.8946 50.4835 77.7322C50.7785 77.5698 51.0022 77.3577 51.1547 77.0959C51.3104 76.8307 51.3883 76.5473 51.3883 76.2457V75.2614C51.3353 75.3144 51.2325 75.3641 51.0801 75.4105C50.9309 75.4536 50.7602 75.4917 50.568 75.5249C50.3758 75.5547 50.1885 75.5829 50.0062 75.6094C49.8239 75.6326 49.6715 75.6525 49.5488 75.669C49.2605 75.7055 48.997 75.7668 48.7583 75.853C48.523 75.9392 48.3341 76.0634 48.1916 76.2259C48.0524 76.3849 47.9828 76.5971 47.9828 76.8622C47.9828 77.2301 48.1187 77.5085 48.3904 77.6974C48.6622 77.883 49.0086 77.9759 49.4295 77.9759ZM57.7134 79.1491C57.0969 79.1491 56.5468 78.9917 56.0629 78.6768C55.5823 78.3587 55.2044 77.9062 54.9293 77.3196C54.6576 76.7296 54.5217 76.022 54.5217 75.1967C54.5217 74.3714 54.6592 73.6655 54.9343 73.0788C55.2127 72.4922 55.5939 72.0431 56.0778 71.7315C56.5617 71.42 57.1102 71.2642 57.7234 71.2642C58.1973 71.2642 58.5785 71.3438 58.8668 71.5028C59.1585 71.6586 59.3839 71.8409 59.543 72.0497C59.7054 72.2585 59.8313 72.4425 59.9208 72.6016H60.0103V68.8182H61.4968V79H60.0451V77.8118H59.9208C59.8313 77.9742 59.7021 78.1598 59.533 78.3686C59.3673 78.5774 59.1386 78.7597 58.8469 78.9155C58.5553 79.0713 58.1774 79.1491 57.7134 79.1491ZM58.0415 77.8814C58.4691 77.8814 58.8304 77.7687 59.1254 77.5433C59.4237 77.3146 59.649 76.9981 59.8015 76.5938C59.9573 76.1894 60.0352 75.7187 60.0352 75.1818C60.0352 74.6515 59.9589 74.1875 59.8065 73.7898C59.654 73.392 59.4303 73.0821 59.1353 72.8601C58.8403 72.638 58.4757 72.527 58.0415 72.527C57.5941 72.527 57.2212 72.643 56.9229 72.875C56.6246 73.107 56.3993 73.4235 56.2468 73.8246C56.0977 74.2256 56.0231 74.678 56.0231 75.1818C56.0231 75.6922 56.0993 76.1513 56.2518 76.5589C56.4042 76.9666 56.6296 77.2898 56.9279 77.5284C57.2295 77.7637 57.6007 77.8814 58.0415 77.8814ZM67.4428 79V68.8182H71.0721C71.8642 68.8182 72.5205 68.9624 73.0408 69.2507C73.5612 69.5391 73.9506 69.9335 74.2092 70.4339C74.4677 70.9311 74.5969 71.4912 74.5969 72.1143C74.5969 72.7408 74.466 73.3042 74.2042 73.8047C73.9457 74.3018 73.5546 74.6963 73.0309 74.9879C72.5105 75.2763 71.8559 75.4205 71.0671 75.4205H68.5714V74.1179H70.9279C71.4284 74.1179 71.8344 74.0317 72.146 73.8594C72.4575 73.6837 72.6862 73.4451 72.832 73.1435C72.9779 72.8419 73.0508 72.4988 73.0508 72.1143C73.0508 71.7299 72.9779 71.3885 72.832 71.0902C72.6862 70.7919 72.4558 70.5582 72.141 70.3892C71.8294 70.2202 71.4184 70.1357 70.908 70.1357H68.979V79H67.4428ZM77.7651 74.4659V79H76.2786V68.8182H77.7452V72.6065H77.8397C78.0186 72.1955 78.2921 71.8691 78.66 71.6271C79.0279 71.3852 79.5085 71.2642 80.1017 71.2642C80.6254 71.2642 81.0828 71.3719 81.4739 71.5874C81.8683 71.8028 82.1732 72.1243 82.3887 72.5518C82.6074 72.9761 82.7168 73.5064 82.7168 74.1428V79H81.2303V74.3217C81.2303 73.7616 81.0861 73.3274 80.7978 73.0192C80.5094 72.7076 80.1084 72.5518 79.5946 72.5518C79.2433 72.5518 78.9284 72.6264 78.65 72.7756C78.3749 72.9247 78.1578 73.1435 77.9988 73.4318C77.843 73.7169 77.7651 74.0616 77.7651 74.4659ZM87.9171 79.1541C87.2012 79.1541 86.5764 78.9901 86.0428 78.6619C85.5092 78.3338 85.0949 77.8748 84.7999 77.2848C84.5049 76.6948 84.3574 76.0054 84.3574 75.2166C84.3574 74.4245 84.5049 73.7318 84.7999 73.1385C85.0949 72.5452 85.5092 72.0845 86.0428 71.7564C86.5764 71.4283 87.2012 71.2642 87.9171 71.2642C88.633 71.2642 89.2578 71.4283 89.7914 71.7564C90.325 72.0845 90.7393 72.5452 91.0343 73.1385C91.3292 73.7318 91.4767 74.4245 91.4767 75.2166C91.4767 76.0054 91.3292 76.6948 91.0343 77.2848C90.7393 77.8748 90.325 78.3338 89.7914 78.6619C89.2578 78.9901 88.633 79.1541 87.9171 79.1541ZM87.9221 77.9062C88.3861 77.9062 88.7705 77.7836 89.0755 77.5384C89.3804 77.2931 89.6058 76.9666 89.7516 76.5589C89.9007 76.1513 89.9753 75.7022 89.9753 75.2116C89.9753 74.7244 89.9007 74.277 89.7516 73.8693C89.6058 73.4583 89.3804 73.1286 89.0755 72.88C88.7705 72.6314 88.3861 72.5071 87.9221 72.5071C87.4547 72.5071 87.0669 72.6314 86.7587 72.88C86.4538 73.1286 86.2267 73.4583 86.0776 73.8693C85.9318 74.277 85.8588 74.7244 85.8588 75.2116C85.8588 75.7022 85.9318 76.1513 86.0776 76.5589C86.2267 76.9666 86.4538 77.2931 86.7587 77.5384C87.0669 77.7836 87.4547 77.9062 87.9221 77.9062ZM96.7006 71.3636V72.5568H92.5295V71.3636H96.7006ZM93.6481 69.5341H95.1346V76.7578C95.1346 77.0462 95.1777 77.2633 95.2638 77.4091C95.35 77.5516 95.4611 77.6494 95.5969 77.7024C95.7362 77.7521 95.887 77.777 96.0494 77.777C96.1687 77.777 96.2731 77.7687 96.3626 77.7521C96.4521 77.7356 96.5217 77.7223 96.5714 77.7124L96.8398 78.9403C96.7537 78.9735 96.631 79.0066 96.4719 79.0398C96.3129 79.0762 96.114 79.0961 95.8754 79.0994C95.4843 79.1061 95.1197 79.0365 94.7816 78.8906C94.4435 78.7448 94.1701 78.5194 93.9613 78.2145C93.7525 77.9096 93.6481 77.5268 93.6481 77.0661V69.5341ZM101.48 79.1541C100.764 79.1541 100.139 78.9901 99.6053 78.6619C99.0717 78.3338 98.6574 77.8748 98.3624 77.2848C98.0674 76.6948 97.9199 76.0054 97.9199 75.2166C97.9199 74.4245 98.0674 73.7318 98.3624 73.1385C98.6574 72.5452 99.0717 72.0845 99.6053 71.7564C100.139 71.4283 100.764 71.2642 101.48 71.2642C102.195 71.2642 102.82 71.4283 103.354 71.7564C103.887 72.0845 104.302 72.5452 104.597 73.1385C104.892 73.7318 105.039 74.4245 105.039 75.2166C105.039 76.0054 104.892 76.6948 104.597 77.2848C104.302 77.8748 103.887 78.3338 103.354 78.6619C102.82 78.9901 102.195 79.1541 101.48 79.1541ZM101.485 77.9062C101.949 77.9062 102.333 77.7836 102.638 77.5384C102.943 77.2931 103.168 76.9666 103.314 76.5589C103.463 76.1513 103.538 75.7022 103.538 75.2116C103.538 74.7244 103.463 74.277 103.314 73.8693C103.168 73.4583 102.943 73.1286 102.638 72.88C102.333 72.6314 101.949 72.5071 101.485 72.5071C101.017 72.5071 100.629 72.6314 100.321 72.88C100.016 73.1286 99.7892 73.4583 99.6401 73.8693C99.4943 74.277 99.4213 74.7244 99.4213 75.2116C99.4213 75.7022 99.4943 76.1513 99.6401 76.5589C99.7892 76.9666 100.016 77.2931 100.321 77.5384C100.629 77.7836 101.017 77.9062 101.485 77.9062Z" fill="#191D23"/>
<defs>
<clipPath id="clip0_1354_4850">
<rect width="41.737" height="41.737" fill="white" transform="translate(40 18.2598)"/>
</clipPath>
</defs>
</svg>
