<svg width="25" height="25" viewBox="0 0 25 25" fill="none" xmlns="http://www.w3.org/2000/svg">
<mask id="mask0_853_1889" style="mask-type:luminance" maskUnits="userSpaceOnUse" x="0" y="0" width="25" height="25">
<path d="M24.9242 0H0V24.9242H24.9242V0Z" fill="white"/>
</mask>
<g mask="url(#mask0_853_1889)">
<path d="M22.7687 7.52974C22.7168 8.00356 22.6714 8.47738 22.6194 8.9512C22.5545 9.54185 22.7103 10.0676 23.0738 10.5414C23.3269 10.8659 23.5671 11.2035 23.8007 11.541C24.2356 12.1706 24.2356 12.8067 23.8007 13.4363C23.593 13.7348 23.3918 14.0399 23.1582 14.319C22.6324 14.9356 22.535 15.6431 22.6519 16.4155C22.7038 16.766 22.7428 17.123 22.7557 17.4735C22.7817 18.116 22.5026 18.5899 21.9379 18.9014C21.5614 19.1091 21.1655 19.2714 20.7631 19.4271C20.1075 19.6868 19.6597 20.1411 19.4065 20.7967C19.2638 21.1666 19.1015 21.5301 18.9197 21.8806C18.5498 22.5881 18.037 22.8477 17.2387 22.7634C16.7908 22.7179 16.3365 22.6725 15.8821 22.6271C15.3564 22.5816 14.889 22.7309 14.4736 23.0425C14.188 23.2566 13.9025 23.4708 13.6104 23.6785C12.7406 24.3016 12.1694 24.3016 11.3062 23.685C11.0725 23.5228 10.8389 23.3605 10.6247 23.1788C10.008 22.653 9.30056 22.5557 8.52817 22.666C8.07382 22.7309 7.61948 22.8088 7.15215 22.7569C6.73674 22.7049 6.42519 22.5167 6.17855 22.1857C5.97085 21.9001 5.84103 21.5821 5.69824 21.264C5.60737 21.0563 5.5165 20.8486 5.43212 20.6409C5.20495 20.1217 4.83498 19.7452 4.31572 19.518C3.90681 19.3428 3.4979 19.174 3.09548 18.9728C2.33607 18.5898 2.06995 18.0771 2.16731 17.2333C2.21274 16.8049 2.25818 16.383 2.29712 15.9546C2.34905 15.4159 2.19976 14.9356 1.86874 14.5007C1.64157 14.2022 1.42088 13.9036 1.20669 13.5985C0.62902 12.7807 0.62902 12.216 1.20669 11.3982C1.38194 11.1515 1.5507 10.9049 1.74542 10.6777C2.27116 10.0611 2.37501 9.36011 2.26467 8.58123C2.19976 8.14636 2.12837 7.70499 2.16731 7.25713C2.21274 6.74437 2.47886 6.38738 2.90725 6.12776C3.33563 5.87462 3.79647 5.70586 4.25082 5.51114C4.822 5.25801 5.22442 4.86857 5.45808 4.29739C5.61386 3.93391 5.76314 3.57043 5.93839 3.21344C6.34081 2.38264 6.8406 2.12301 7.76227 2.22037C8.16469 2.26581 8.56712 2.30475 8.96954 2.34369C9.52774 2.40211 10.0275 2.24633 10.4689 1.90882C10.761 1.68814 11.053 1.47394 11.3516 1.25975C12.1694 0.682081 12.7341 0.682081 13.552 1.25326C13.8051 1.42851 14.0582 1.60376 14.2919 1.80497C14.902 2.32422 15.603 2.42158 16.3689 2.31124C16.8297 2.24633 17.2971 2.16195 17.7709 2.22037C18.1863 2.2723 18.4979 2.46702 18.738 2.80453C18.9457 3.09012 19.0755 3.41465 19.2118 3.7327C19.3027 3.9404 19.3936 4.1481 19.4844 4.3558C19.7116 4.88804 20.101 5.25801 20.6333 5.48518C21.0162 5.65394 21.4057 5.8162 21.7886 5.99145C22.4377 6.29651 22.8012 6.78331 22.7687 7.52974Z" fill="#0DCAF0"/>
<path d="M18.0161 9.99623C18.0226 10.2624 17.8992 10.5674 17.6591 10.8141C15.8612 12.612 14.0632 14.4099 12.2588 16.2013C11.7591 16.6946 11.0126 16.6881 10.5128 16.1948C9.4289 15.1239 8.35145 14.0464 7.28049 12.969C6.78071 12.4692 6.78071 11.6643 7.25453 11.1775C7.7608 10.6648 8.55915 10.6453 9.0849 11.1581C9.79887 11.8526 10.4999 12.5601 11.2009 13.2675C11.3437 13.4168 11.4215 13.4363 11.5773 13.274C12.9663 11.872 14.3683 10.4765 15.7703 9.08105C16.3025 8.5553 17.0035 8.4904 17.5422 8.92527C17.8538 9.17192 18.0161 9.50943 18.0161 9.99623Z" fill="#191D23"/>
</g>
</svg>
